<?xml version="1.0" encoding="UTF-8" standalone="no"?>
<!DOCTYPE svg PUBLIC "-//W3C//DTD SVG 1.1//EN" "http://www.w3.org/Graphics/SVG/1.1/DTD/svg11.dtd">
<!-- Generated by Microsoft Visio, SVG Export AD_LPF.svg Page-1 -->
<svg xmlns="http://www.w3.org/2000/svg" xmlns:xlink="http://www.w3.org/1999/xlink" xmlns:ev="http://www.w3.org/2001/xml-events"
		xmlns:v="http://schemas.microsoft.com/visio/2003/SVGExtensions/" width="1.90743in" height="0.416111in"
		viewBox="0 0 137.335 29.96" xml:space="preserve" color-interpolation-filters="sRGB" class="st6">
	<v:documentProperties v:langID="1033" v:viewMarkup="false"/>

	<style type="text/css">
	<![CDATA[
		.st1 {fill:#ffffff;stroke:#000000;stroke-linecap:round;stroke-linejoin:round;stroke-width:1}
		.st2 {fill:#000000;font-family:CMU Serif;font-size:0.833336em}
		.st3 {stroke:#000000;stroke-linecap:round;stroke-linejoin:round;stroke-width:1}
		.st4 {marker-end:url(#mrkr5-31);stroke:#000000;stroke-linecap:round;stroke-linejoin:round;stroke-width:1}
		.st5 {fill:#000000;fill-opacity:1;stroke:#000000;stroke-opacity:1;stroke-width:0.40983606557377}
		.st6 {fill:none;fill-rule:evenodd;font-size:12px;overflow:visible;stroke-linecap:square;stroke-miterlimit:3}
	]]>
	</style>

	<defs id="Markers">
		<g id="lend5">
			<path d="M 2 1 L 0 0 L 1.98117 -0.993387 C 1.67173 -0.364515 1.67301 0.372641 1.98465 1.00043 " style="stroke:none"/>
		</g>
		<marker id="mrkr5-31" class="st5" v:arrowType="5" v:arrowSize="0" v:setback="4.27" refX="-4.27" orient="auto"
				markerUnits="strokeWidth" overflow="visible">
			<use xlink:href="#lend5" transform="scale(-2.44,-2.44) "/>
		</marker>
	</defs>
	<g v:mID="0" v:index="1" v:groupContext="foregroundPage">
		<title>Page-1</title>
		<v:pageProperties v:drawingScale="0.0393701" v:pageScale="0.0393701" v:drawingUnits="24" v:shadowOffsetX="8.50394"
				v:shadowOffsetY="-8.50394"/>
		<g id="shape140-1" v:mID="140" v:groupContext="shape" transform="translate(101.458,-0.5)">
			<title>Sheet.140</title>
			<desc>DSP</desc>
			<v:textBlock v:margins="rect(4,4,4,4)" v:tabSpace="42.5197"/>
			<v:textRect cx="17.6887" cy="15.48" width="35.38" height="28.96"/>
			<rect x="0" y="1" width="35.3775" height="28.96" class="st1"/>
			<text x="7.68" y="18.48" class="st2" v:langID="1033"><v:paragraph v:horizAlign="1"/><v:tabList/>DSP</text>		</g>
		<g id="shape141-4" v:mID="141" v:groupContext="shape" transform="translate(53.4109,-0.5)">
			<title>Sheet.141</title>
			<desc>A/D</desc>
			<v:textBlock v:margins="rect(4,4,4,4)" v:tabSpace="42.5197"/>
			<v:textRect cx="17.6887" cy="15.5093" width="35.38" height="28.9014"/>
			<path d="M18.67 29.89 L18.67 29.96 L18.77 29.96 L37.8 29.96 L37.8 1.06 L18.77 1.06 L18.67 1.06 L18.67 1.13 L0 15.51 L18.67
						 29.89 Z" class="st1"/>
			<text x="11.26" y="18.51" class="st2" v:langID="1033"><v:paragraph v:horizAlign="2"/><v:tabList/>A/D</text>		</g>
		<g id="group142-7" transform="translate(15.3933,-1.62989)" v:mID="142" v:groupContext="group">
			<title>Sheet.142</title>
			<g id="shape143-8" v:mID="143" v:groupContext="shape">
				<title>Sheet.143</title>
				<rect x="0" y="2.18848" width="27.7715" height="27.7715" class="st1"/>
			</g>
			<g id="shape144-10" v:mID="144" v:groupContext="shape" transform="translate(-9.51166,-7.07032) rotate(-45)">
				<title>Sheet.144</title>
				<path d="M0 29.96 L6.95 29.96" class="st3"/>
			</g>
			<g id="group145-13" transform="translate(3.70768,-14.8819)" v:mID="145" v:groupContext="group">
				<title>Sheet.145</title>
				<g id="shape146-14" v:mID="146" v:groupContext="shape" transform="translate(10.5721,53.1168) rotate(180)">
					<title>Sheet.146</title>
					<path d="M0 26.3 A7.31722 6.1038 -90 0 0 10.57 26.3" class="st3"/>
				</g>
				<g id="shape147-17" v:mID="147" v:groupContext="shape" transform="translate(10.2244,-1.7053E-13)">
					<title>Sheet.147</title>
					<path d="M-0 26.4 A6.1038 7.11015 -180 0 0 10.57 26.4" class="st3"/>
				</g>
			</g>
			<g id="shape148-20" v:mID="148" v:groupContext="shape" transform="translate(14.4215,47.351) rotate(180)">
				<title>Sheet.148</title>
				<path d="M0 26.3 A7.31722 6.1038 -90 0 0 10.57 26.3" class="st3"/>
			</g>
			<g id="shape149-23" v:mID="149" v:groupContext="shape" transform="translate(14.2084,-5.76582)">
				<title>Sheet.149</title>
				<path d="M0 26.4 A6.02608 7.11015 -180 0 0 10.44 26.4" class="st3"/>
			</g>
		</g>
		<g id="shape150-26" v:mID="150" v:groupContext="shape" transform="translate(43.4736,-14.9507)">
			<title>Sheet.150</title>
			<path d="M0 29.96 L5.67 29.96" class="st4"/>
		</g>
		<g id="shape151-32" v:mID="151" v:groupContext="shape" transform="translate(91.2115,-14.6727)">
			<title>Sheet.151</title>
			<path d="M0 29.96 L5.67 29.96" class="st4"/>
		</g>
		<g id="shape152-37" v:mID="152" v:groupContext="shape" transform="translate(5.45601,-14.6727)">
			<title>Sheet.152</title>
			<path d="M0 29.96 L5.67 29.96" class="st4"/>
		</g>
	</g>
</svg>
