<?xml version="1.0" encoding="UTF-8" standalone="no"?>
<!DOCTYPE svg PUBLIC "-//W3C//DTD SVG 1.1//EN" "http://www.w3.org/Graphics/SVG/1.1/DTD/svg11.dtd">
<!-- Generated by Microsoft Visio, SVG Export DSP_system.svg Page-1 -->
<svg xmlns="http://www.w3.org/2000/svg" xmlns:xlink="http://www.w3.org/1999/xlink" xmlns:ev="http://www.w3.org/2001/xml-events"
		xmlns:v="http://schemas.microsoft.com/visio/2003/SVGExtensions/" width="3.31561in" height="0.421154in"
		viewBox="0 0 238.724 30.3231" xml:space="preserve" color-interpolation-filters="sRGB" class="st6">
	<v:documentProperties v:langID="1033" v:viewMarkup="false"/>

	<style type="text/css">
	<![CDATA[
		.st1 {fill:#ffffff;stroke:#000000;stroke-linecap:round;stroke-linejoin:round;stroke-width:1}
		.st2 {fill:#000000;font-family:CMU Serif;font-size:0.833336em}
		.st3 {stroke:#000000;stroke-linecap:round;stroke-linejoin:round;stroke-width:1}
		.st4 {marker-end:url(#mrkr5-31);stroke:#000000;stroke-linecap:round;stroke-linejoin:round;stroke-width:1}
		.st5 {fill:#000000;fill-opacity:1;stroke:#000000;stroke-opacity:1;stroke-width:0.40983606557377}
		.st6 {fill:none;fill-rule:evenodd;font-size:12px;overflow:visible;stroke-linecap:square;stroke-miterlimit:3}
	]]>
	</style>

	<defs id="Markers">
		<g id="lend5">
			<path d="M 2 1 L 0 0 L 1.98117 -0.993387 C 1.67173 -0.364515 1.67301 0.372641 1.98465 1.00043 " style="stroke:none"/>
		</g>
		<marker id="mrkr5-31" class="st5" v:arrowType="5" v:arrowSize="0" v:setback="4.27" refX="-4.27" orient="auto"
				markerUnits="strokeWidth" overflow="visible">
			<use xlink:href="#lend5" transform="scale(-2.44,-2.44) "/>
		</marker>
	</defs>
	<g v:mID="0" v:index="1" v:groupContext="foregroundPage">
		<title>Page-1</title>
		<v:pageProperties v:drawingScale="0.0393701" v:pageScale="0.0393701" v:drawingUnits="24" v:shadowOffsetX="8.50394"
				v:shadowOffsetY="-8.50394"/>
		<g id="shape68-1" v:mID="68" v:groupContext="shape" transform="translate(101.458,-0.634774)">
			<title>Sheet.68</title>
			<desc>DSP</desc>
			<v:textBlock v:margins="rect(4,4,4,4)" v:tabSpace="42.5197"/>
			<v:textRect cx="17.6887" cy="15.8431" width="35.38" height="28.96"/>
			<rect x="0" y="1.36312" width="35.3775" height="28.96" class="st1"/>
			<text x="7.68" y="18.84" class="st2" v:langID="1033"><v:paragraph v:horizAlign="1"/><v:tabList/>DSP</text>		</g>
		<g id="shape104-4" v:mID="104" v:groupContext="shape" transform="translate(53.4109,-0.634774)">
			<title>Sheet.104</title>
			<desc>A/D</desc>
			<v:textBlock v:margins="rect(4,4,4,4)" v:tabSpace="42.5197"/>
			<v:textRect cx="17.6887" cy="15.8724" width="35.38" height="28.9014"/>
			<path d="M18.67 30.25 L18.67 30.32 L18.77 30.32 L37.8 30.32 L37.8 1.42 L18.77 1.42 L18.67 1.42 L18.67 1.5 L0 15.87 L18.67
						 30.25 Z" class="st1"/>
			<text x="11.26" y="18.87" class="st2" v:langID="1033"><v:paragraph v:horizAlign="2"/><v:tabList/>A/D</text>		</g>
		<g id="group124-7" transform="translate(15.3933,-1.76466)" v:mID="124" v:groupContext="group">
			<title>Sheet.124</title>
			<g id="shape82-8" v:mID="82" v:groupContext="shape">
				<title>Sheet.82</title>
				<rect x="0" y="2.5516" width="27.7715" height="27.7715" class="st1"/>
			</g>
			<g id="shape86-10" v:mID="86" v:groupContext="shape" transform="translate(-9.76842,-6.96397) rotate(-45)">
				<title>Sheet.86</title>
				<path d="M0 30.32 L6.95 30.32" class="st3"/>
			</g>
			<g id="group120-13" transform="translate(3.70768,-14.8819)" v:mID="120" v:groupContext="group">
				<title>Sheet.120</title>
				<g id="shape84-14" v:mID="84" v:groupContext="shape" transform="translate(10.5721,53.8431) rotate(180)">
					<title>Sheet.84</title>
					<path d="M0 26.66 A7.31722 6.1038 -90 0 0 10.57 26.66" class="st3"/>
				</g>
				<g id="shape85-17" v:mID="85" v:groupContext="shape" transform="translate(10.2244,-1.7053E-13)">
					<title>Sheet.85</title>
					<path d="M-0 26.77 A6.1038 7.11015 -180 0 0 10.57 26.77" class="st3"/>
				</g>
			</g>
			<g id="shape122-20" v:mID="122" v:groupContext="shape" transform="translate(14.4215,48.0772) rotate(180)">
				<title>Sheet.122</title>
				<path d="M0 26.66 A7.31722 6.1038 -90 0 0 10.57 26.66" class="st3"/>
			</g>
			<g id="shape123-23" v:mID="123" v:groupContext="shape" transform="translate(14.2084,-5.76582)">
				<title>Sheet.123</title>
				<path d="M0 26.77 A6.02608 7.11015 -180 0 0 10.44 26.77" class="st3"/>
			</g>
		</g>
		<g id="shape125-26" v:mID="125" v:groupContext="shape" transform="translate(43.4736,-15.0855)">
			<title>Sheet.125</title>
			<path d="M0 30.32 L5.67 30.32" class="st4"/>
		</g>
		<g id="shape126-32" v:mID="126" v:groupContext="shape" transform="translate(91.2115,-14.8075)">
			<title>Sheet.126</title>
			<path d="M0 30.32 L5.67 30.32" class="st4"/>
		</g>
		<g id="shape127-37" v:mID="127" v:groupContext="shape" transform="translate(5.45601,-14.8075)">
			<title>Sheet.127</title>
			<path d="M0 30.32 L5.67 30.32" class="st4"/>
		</g>
		<g id="group128-42" transform="translate(195.25,-2.0516)" v:mID="128" v:groupContext="group">
			<title>Sheet.128</title>
			<g id="shape129-43" v:mID="129" v:groupContext="shape">
				<title>Sheet.129</title>
				<rect x="0" y="2.5516" width="27.7715" height="27.7715" class="st1"/>
			</g>
			<g id="shape130-45" v:mID="130" v:groupContext="shape" transform="translate(-9.76842,-6.96397) rotate(-45)">
				<title>Sheet.130</title>
				<path d="M0 30.32 L6.95 30.32" class="st3"/>
			</g>
			<g id="group131-48" transform="translate(3.70768,-14.8819)" v:mID="131" v:groupContext="group">
				<title>Sheet.131</title>
				<g id="shape132-49" v:mID="132" v:groupContext="shape" transform="translate(10.5721,53.8431) rotate(180)">
					<title>Sheet.132</title>
					<path d="M0 26.66 A7.31722 6.1038 -90 0 0 10.57 26.66" class="st3"/>
				</g>
				<g id="shape133-52" v:mID="133" v:groupContext="shape" transform="translate(10.2244,-1.7053E-13)">
					<title>Sheet.133</title>
					<path d="M-0 26.77 A6.1038 7.11015 -180 0 0 10.57 26.77" class="st3"/>
				</g>
			</g>
			<g id="shape134-55" v:mID="134" v:groupContext="shape" transform="translate(14.4215,48.0772) rotate(180)">
				<title>Sheet.134</title>
				<path d="M0 26.66 A7.31722 6.1038 -90 0 0 10.57 26.66" class="st3"/>
			</g>
			<g id="shape135-58" v:mID="135" v:groupContext="shape" transform="translate(14.2084,-5.76582)">
				<title>Sheet.135</title>
				<path d="M0 26.77 A6.02608 7.11015 -180 0 0 10.44 26.77" class="st3"/>
			</g>
		</g>
		<g id="shape136-61" v:mID="136" v:groupContext="shape" transform="translate(223.33,-15.3724)">
			<title>Sheet.136</title>
			<path d="M0 30.32 L5.67 30.32" class="st4"/>
		</g>
		<g id="shape137-66" v:mID="137" v:groupContext="shape" transform="translate(185.313,-15.0944)">
			<title>Sheet.137</title>
			<path d="M0 30.32 L5.67 30.32" class="st4"/>
		</g>
		<g id="shape138-71" v:mID="138" v:groupContext="shape" transform="translate(185.162,-0.5) scale(-1,1)">
			<title>Sheet.138</title>
			<desc>D/A</desc>
			<v:textBlock v:margins="rect(4,4,4,4)" v:tabSpace="42.5197"/>
			<v:textRect cx="17.6887" cy="15.8724" width="35.38" height="28.9014"/>
			<path d="M18.67 30.25 L18.67 30.32 L18.77 30.32 L37.8 30.32 L37.8 1.42 L18.77 1.42 L18.67 1.42 L18.67 1.5 L0 15.87 L18.67
						 30.25 Z" class="st1"/>
			<text x="-31.38" y="18.87" transform="scale(-1,1)" class="st2" v:langID="1033"><v:paragraph/><v:tabList/>D/A</text>		</g>
		<g id="shape139-74" v:mID="139" v:groupContext="shape" transform="translate(137.424,-14.9507)">
			<title>Sheet.139</title>
			<path d="M0 30.32 L5.67 30.32" class="st4"/>
		</g>
	</g>
</svg>
