<?xml version="1.0" encoding="utf-8" standalone="no"?>
<!DOCTYPE svg PUBLIC "-//W3C//DTD SVG 1.1//EN"
  "http://www.w3.org/Graphics/SVG/1.1/DTD/svg11.dtd">
<!-- Created with matplotlib (https://matplotlib.org/) -->
<svg height="345.6pt" version="1.1" viewBox="0 0 460.8 345.6" width="460.8pt" xmlns="http://www.w3.org/2000/svg" xmlns:xlink="http://www.w3.org/1999/xlink">
 <metadata>
  <rdf:RDF xmlns:cc="http://creativecommons.org/ns#" xmlns:dc="http://purl.org/dc/elements/1.1/" xmlns:rdf="http://www.w3.org/1999/02/22-rdf-syntax-ns#">
   <cc:Work>
    <dc:type rdf:resource="http://purl.org/dc/dcmitype/StillImage"/>
    <dc:date>2020-10-01T16:10:42.674848</dc:date>
    <dc:format>image/svg+xml</dc:format>
    <dc:creator>
     <cc:Agent>
      <dc:title>Matplotlib v3.3.1, https://matplotlib.org/</dc:title>
     </cc:Agent>
    </dc:creator>
   </cc:Work>
  </rdf:RDF>
 </metadata>
 <defs>
  <style type="text/css">*{stroke-linecap:butt;stroke-linejoin:round;}</style>
 </defs>
 <g id="figure_1">
  <g id="patch_1">
   <path d="M 0 345.6 
L 460.8 345.6 
L 460.8 0 
L 0 0 
z
" style="fill:#ffffff;"/>
  </g>
  <g id="axes_1">
   <g id="patch_2">
    <path d="M 57.6 307.584 
L 414.72 307.584 
L 414.72 41.472 
L 57.6 41.472 
z
" style="fill:#ffffff;"/>
   </g>
   <g id="matplotlib.axis_1">
    <g id="xtick_1">
     <g id="line2d_1">
      <defs>
       <path d="M 0 0 
L 0 3.5 
" id="m7d758949d3" style="stroke:#000000;stroke-width:0.8;"/>
      </defs>
      <g>
       <use style="stroke:#000000;stroke-width:0.8;" x="57.6" xlink:href="#m7d758949d3" y="307.584"/>
      </g>
     </g>
     <g id="text_1">
      <!-- $-5\pi$ -->
      <g transform="translate(44.888118 324.269876)scale(0.14 -0.14)">
       <defs>
        <path d="M 65.90625 23 
C 67.59375 23 69.40625 23 69.40625 25 
C 69.40625 27 67.59375 27 65.90625 27 
L 11.796875 27 
C 10.09375 27 8.296875 27 8.296875 25 
C 8.296875 23 10.09375 23 11.796875 23 
z
" id="CMSY10-0"/>
        <path d="M 11.40625 57.6875 
C 12.40625 57.28125 16.5 56 20.703125 56 
C 30 56 35.09375 61.109375 38 64.0625 
C 38 64.953125 38 65.5 37.40625 65.5 
C 37.296875 65.5 37.09375 65.5 36.296875 65.046875 
C 32.796875 63.40625 28.703125 62.078125 23.703125 62.078125 
C 20.703125 62.078125 16.203125 62.484375 11.296875 64.671875 
C 10.203125 65.171875 10 65.171875 9.90625 65.171875 
C 9.40625 65.171875 9.296875 65.0625 9.296875 63.078125 
L 9.296875 34.421875 
C 9.296875 32.640625 9.296875 32.140625 10.296875 32.140625 
C 10.796875 32.140625 11 32.34375 11.5 33.03125 
C 14.703125 37.515625 19.09375 39.40625 24.09375 39.40625 
C 27.59375 39.40625 35.09375 37.21875 35.09375 20.140625 
C 35.09375 16.953125 35.09375 11.171875 32.09375 6.578125 
C 29.59375 2.484375 25.703125 0.390625 21.40625 0.390625 
C 14.796875 0.390625 8.09375 5 6.296875 12.71875 
C 6.703125 12.609375 7.5 12.421875 7.90625 12.421875 
C 9.203125 12.421875 11.703125 13.125 11.703125 16.21875 
C 11.703125 18.90625 9.796875 20 7.90625 20 
C 5.59375 20 4.09375 18.59375 4.09375 15.796875 
C 4.09375 7.09375 11 -2 21.59375 -2 
C 31.90625 -2 41.703125 6.875 41.703125 19.75 
C 41.703125 31.71875 33.90625 41 24.203125 41 
C 19.09375 41 14.796875 39.109375 11.40625 35.53125 
z
" id="CMR17-53"/>
        <path d="M 25.90625 37.625 
L 37.203125 37.625 
C 34.5 26.4375 32.796875 19.15625 32.796875 11.1875 
C 32.796875 9.78125 32.796875 -1 36.90625 -1 
C 39 -1 40.796875 0.890625 40.796875 2.59375 
C 40.796875 3.078125 40.796875 3.28125 40.09375 4.78125 
C 37.40625 11.671875 37.40625 20.25 37.40625 20.953125 
C 37.40625 21.546875 37.40625 28.625 39.5 37.625 
L 50.703125 37.625 
C 52 37.625 55.296875 37.625 55.296875 40.8125 
C 55.296875 43 53.40625 43 51.59375 43 
L 18.703125 43 
C 16.40625 43 13 43 8.40625 38.125 
C 5.796875 35.21875 2.59375 29.9375 2.59375 29.34375 
C 2.59375 28.75 3.09375 28.546875 3.703125 28.546875 
C 4.40625 28.546875 4.5 28.84375 5 29.4375 
C 10.203125 37.625 15.40625 37.625 17.90625 37.625 
L 23.59375 37.625 
C 21.40625 30.140625 18.90625 21.453125 10.703125 4 
C 9.90625 2.40625 9.90625 2.1875 9.90625 1.59375 
C 9.90625 -0.5 11.703125 -1 12.59375 -1 
C 15.5 -1 16.296875 1.59375 17.5 5.78125 
C 19.09375 10.875 19.09375 11.078125 20.09375 15.0625 
z
" id="CMMI12-25"/>
       </defs>
       <use transform="scale(0.996264)" xlink:href="#CMSY10-0"/>
       <use transform="translate(77.487468 0)scale(0.996264)" xlink:href="#CMR17-53"/>
       <use transform="translate(123.177945 0)scale(0.996264)" xlink:href="#CMMI12-25"/>
      </g>
     </g>
    </g>
    <g id="xtick_2">
     <g id="line2d_2">
      <g>
       <use style="stroke:#000000;stroke-width:0.8;" x="93.312" xlink:href="#m7d758949d3" y="307.584"/>
      </g>
     </g>
     <g id="text_2">
      <!-- $-4\pi$ -->
      <g transform="translate(80.600118 324.269876)scale(0.14 -0.14)">
       <defs>
        <path d="M 33.59375 64.40625 
C 33.59375 66.5 33.5 66.5 31.703125 66.5 
L 2 19.59375 
L 2 17 
L 27.796875 17 
L 27.796875 7.140625 
C 27.796875 3.5 27.59375 2.5 20.59375 2.5 
L 18.703125 2.5 
L 18.703125 0 
C 21.90625 0 27.296875 0 30.703125 0 
C 34.09375 0 39.5 0 42.703125 0 
L 42.703125 2.5 
L 40.796875 2.5 
C 33.796875 2.5 33.59375 3.5 33.59375 7.140625 
L 33.59375 17 
L 43.796875 17 
L 43.796875 19.59375 
L 33.59375 19.59375 
z
M 28.09375 57.859375 
L 28.09375 19.59375 
L 4 19.59375 
z
" id="CMR17-52"/>
       </defs>
       <use transform="scale(0.996264)" xlink:href="#CMSY10-0"/>
       <use transform="translate(77.487468 0)scale(0.996264)" xlink:href="#CMR17-52"/>
       <use transform="translate(123.177945 0)scale(0.996264)" xlink:href="#CMMI12-25"/>
      </g>
     </g>
    </g>
    <g id="xtick_3">
     <g id="line2d_3">
      <g>
       <use style="stroke:#000000;stroke-width:0.8;" x="129.024" xlink:href="#m7d758949d3" y="307.584"/>
      </g>
     </g>
     <g id="text_3">
      <!-- $-3\pi$ -->
      <g transform="translate(116.312118 324.269876)scale(0.14 -0.14)">
       <defs>
        <path d="M 22.09375 33.703125 
C 31 33.703125 34.90625 25.96875 34.90625 17.03125 
C 34.90625 5 28.5 0.390625 22.703125 0.390625 
C 17.40625 0.390625 8.796875 3.03125 6.09375 10.828125 
C 6.59375 10.625 7.09375 10.625 7.59375 10.625 
C 10 10.625 11.796875 12.21875 11.796875 14.8125 
C 11.796875 17.703125 9.59375 19 7.59375 19 
C 5.90625 19 3.296875 18.203125 3.296875 14.46875 
C 3.296875 5.234375 12.296875 -2 22.90625 -2 
C 34 -2 42.5 6.71875 42.5 16.953125 
C 42.5 26.671875 34.5 33.703125 25 34.796875 
C 32.59375 36.375 39.90625 43.0625 39.90625 52.015625 
C 39.90625 59.6875 32 65.296875 23 65.296875 
C 13.90625 65.296875 5.90625 59.828125 5.90625 52.015625 
C 5.90625 48.59375 8.5 48 9.796875 48 
C 11.90625 48 13.703125 49.296875 13.703125 51.890625 
C 13.703125 54.46875 11.90625 55.765625 9.796875 55.765625 
C 9.40625 55.765625 8.90625 55.765625 8.5 55.578125 
C 11.40625 61.859375 19.296875 63 22.796875 63 
C 26.296875 63 32.90625 61.328125 32.90625 51.875 
C 32.90625 49.109375 32.5 44.1875 29.09375 39.84375 
C 26.09375 36 22.703125 36 19.40625 35.6875 
C 18.90625 35.6875 16.59375 35.453125 16.203125 35.453125 
C 15.5 35.359375 15.09375 35.265625 15.09375 34.5 
C 15.09375 33.796875 15.203125 33.703125 17.203125 33.703125 
z
" id="CMR17-51"/>
       </defs>
       <use transform="scale(0.996264)" xlink:href="#CMSY10-0"/>
       <use transform="translate(77.487468 0)scale(0.996264)" xlink:href="#CMR17-51"/>
       <use transform="translate(123.177945 0)scale(0.996264)" xlink:href="#CMMI12-25"/>
      </g>
     </g>
    </g>
    <g id="xtick_4">
     <g id="line2d_4">
      <g>
       <use style="stroke:#000000;stroke-width:0.8;" x="164.736" xlink:href="#m7d758949d3" y="307.584"/>
      </g>
     </g>
     <g id="text_4">
      <!-- $-2\pi$ -->
      <g transform="translate(152.024118 324.269876)scale(0.14 -0.14)">
       <defs>
        <path d="M 41.703125 15.453125 
L 39.90625 15.453125 
C 38.90625 8.375 38.09375 7.171875 37.703125 6.5625 
C 37.203125 5.765625 30 5.765625 28.59375 5.765625 
L 9.40625 5.765625 
C 13 9.671875 20 16.75 28.5 24.953125 
C 34.59375 30.734375 41.703125 37.53125 41.703125 47.421875 
C 41.703125 59.21875 32.296875 66 21.796875 66 
C 10.796875 66 4.09375 56.3125 4.09375 47.34375 
C 4.09375 43.4375 7 42.9375 8.203125 42.9375 
C 9.203125 42.9375 12.203125 43.546875 12.203125 47.03125 
C 12.203125 50.109375 9.59375 51 8.203125 51 
C 7.59375 51 7 50.90625 6.59375 50.703125 
C 8.5 59.21875 14.296875 63.40625 20.40625 63.40625 
C 29.09375 63.40625 34.796875 56.515625 34.796875 47.421875 
C 34.796875 38.734375 29.703125 31.25 24 24.75 
L 4.09375 2.28125 
L 4.09375 0 
L 39.296875 0 
z
" id="CMR17-50"/>
       </defs>
       <use transform="scale(0.996264)" xlink:href="#CMSY10-0"/>
       <use transform="translate(77.487468 0)scale(0.996264)" xlink:href="#CMR17-50"/>
       <use transform="translate(123.177945 0)scale(0.996264)" xlink:href="#CMMI12-25"/>
      </g>
     </g>
    </g>
    <g id="xtick_5">
     <g id="line2d_5">
      <g>
       <use style="stroke:#000000;stroke-width:0.8;" x="200.448" xlink:href="#m7d758949d3" y="307.584"/>
      </g>
     </g>
     <g id="text_5">
      <!-- $\pi$ -->
      <g transform="translate(196.574479 324.269876)scale(0.14 -0.14)">
       <use transform="scale(0.996264)" xlink:href="#CMMI12-25"/>
      </g>
     </g>
    </g>
    <g id="xtick_6">
     <g id="line2d_6">
      <g>
       <use style="stroke:#000000;stroke-width:0.8;" x="236.16" xlink:href="#m7d758949d3" y="307.584"/>
      </g>
     </g>
     <g id="text_6">
      <!-- 0 -->
      <g transform="translate(232.745756 324.269876)scale(0.14 -0.14)">
       <defs>
        <path d="M 42 31.640625 
C 42 37.75 41.90625 48.125 37.703125 56.109375 
C 34 63.109375 28.09375 65.59375 22.90625 65.59375 
C 18.09375 65.59375 12 63.40625 8.203125 56.203125 
C 4.203125 48.71875 3.796875 39.4375 3.796875 31.640625 
C 3.796875 25.953125 3.90625 17.28125 7 9.671875 
C 11.296875 -0.609375 19 -2 22.90625 -2 
C 27.5 -2 34.5 -0.109375 38.59375 9.375 
C 41.59375 16.28125 42 24.359375 42 31.640625 
z
M 22.90625 -0.40625 
C 16.5 -0.40625 12.703125 5.078125 11.296875 12.6875 
C 10.203125 18.5625 10.203125 27.15625 10.203125 32.75 
C 10.203125 40.4375 10.203125 46.828125 11.5 52.921875 
C 13.40625 61.390625 19 64 22.90625 64 
C 27 64 32.296875 61.296875 34.203125 53.125 
C 35.5 47.4375 35.59375 40.734375 35.59375 32.75 
C 35.59375 26.25 35.59375 18.265625 34.40625 12.375 
C 32.296875 1.484375 26.40625 -0.40625 22.90625 -0.40625 
z
" id="CMR17-48"/>
       </defs>
       <use transform="scale(0.996264)" xlink:href="#CMR17-48"/>
      </g>
     </g>
    </g>
    <g id="xtick_7">
     <g id="line2d_7">
      <g>
       <use style="stroke:#000000;stroke-width:0.8;" x="271.872" xlink:href="#m7d758949d3" y="307.584"/>
      </g>
     </g>
     <g id="text_7">
      <!-- $\pi$ -->
      <g transform="translate(267.998479 324.269876)scale(0.14 -0.14)">
       <use transform="scale(0.996264)" xlink:href="#CMMI12-25"/>
      </g>
     </g>
    </g>
    <g id="xtick_8">
     <g id="line2d_8">
      <g>
       <use style="stroke:#000000;stroke-width:0.8;" x="307.584" xlink:href="#m7d758949d3" y="307.584"/>
      </g>
     </g>
     <g id="text_8">
      <!-- $2\pi$ -->
      <g transform="translate(300.296235 324.269876)scale(0.14 -0.14)">
       <use transform="scale(0.996264)" xlink:href="#CMR17-50"/>
       <use transform="translate(45.690477 0)scale(0.996264)" xlink:href="#CMMI12-25"/>
      </g>
     </g>
    </g>
    <g id="xtick_9">
     <g id="line2d_9">
      <g>
       <use style="stroke:#000000;stroke-width:0.8;" x="343.296" xlink:href="#m7d758949d3" y="307.584"/>
      </g>
     </g>
     <g id="text_9">
      <!-- $3\pi$ -->
      <g transform="translate(336.008235 324.269876)scale(0.14 -0.14)">
       <use transform="scale(0.996264)" xlink:href="#CMR17-51"/>
       <use transform="translate(45.690477 0)scale(0.996264)" xlink:href="#CMMI12-25"/>
      </g>
     </g>
    </g>
    <g id="xtick_10">
     <g id="line2d_10">
      <g>
       <use style="stroke:#000000;stroke-width:0.8;" x="379.008" xlink:href="#m7d758949d3" y="307.584"/>
      </g>
     </g>
     <g id="text_10">
      <!-- $4\pi$ -->
      <g transform="translate(371.720235 324.269876)scale(0.14 -0.14)">
       <use transform="scale(0.996264)" xlink:href="#CMR17-52"/>
       <use transform="translate(45.690477 0)scale(0.996264)" xlink:href="#CMMI12-25"/>
      </g>
     </g>
    </g>
    <g id="xtick_11">
     <g id="line2d_11">
      <g>
       <use style="stroke:#000000;stroke-width:0.8;" x="414.72" xlink:href="#m7d758949d3" y="307.584"/>
      </g>
     </g>
     <g id="text_11">
      <!-- $5\pi$ -->
      <g transform="translate(407.432235 324.269876)scale(0.14 -0.14)">
       <use transform="scale(0.996264)" xlink:href="#CMR17-53"/>
       <use transform="translate(45.690477 0)scale(0.996264)" xlink:href="#CMMI12-25"/>
      </g>
     </g>
    </g>
    <g id="text_12">
     <!-- $\omega$ -->
     <g transform="translate(230.693067 343.435205)scale(0.18 -0.18)">
      <defs>
       <path d="M 59.40625 37.421875 
C 59.40625 40.3125 58.59375 44 55.09375 44 
C 53.09375 44 50.796875 41.515625 50.796875 39.515625 
C 50.796875 38.625 51.203125 38.03125 52 37.125 
C 53.5 35.4375 55.40625 32.75 55.40625 28.078125 
C 55.40625 24.484375 53.203125 18.8125 51.59375 15.734375 
C 48.796875 10.25 44.203125 5.578125 39 5.578125 
C 32.703125 5.578125 30.296875 9.609375 29.203125 15.234375 
C 30.296875 17.859375 32.59375 24.375 32.59375 27 
C 32.59375 28.09375 32.203125 29 30.90625 29 
C 30.203125 29 29.40625 28.609375 28.90625 27.796875 
C 27.5 25.59375 26.203125 17.640625 26.296875 15.53125 
C 24.40625 11.8125 19 5.578125 12.59375 5.578125 
C 5.90625 5.578125 4.09375 11.453125 4.09375 17.125 
C 4.09375 27.46875 10.59375 36.53125 12.40625 39.015625 
C 13.40625 40.515625 14.09375 41.515625 14.09375 41.703125 
C 14.09375 42.40625 13.703125 43.5 12.796875 43.5 
C 11.203125 43.5 10.703125 42.203125 9.90625 41.015625 
C 4.796875 33.140625 1.203125 22.09375 1.203125 12.546875 
C 1.203125 6.375 3.5 -1 11 -1 
C 19.296875 -1 24.5 6.109375 26.59375 9.90625 
C 27.40625 4.296875 30.40625 -1 37.703125 -1 
C 45.296875 -1 50.09375 5.671875 53.703125 13.734375 
C 56.296875 19.515625 59.40625 31.953125 59.40625 37.421875 
z
" id="CMMI12-33"/>
      </defs>
      <use transform="scale(0.996264)" xlink:href="#CMMI12-33"/>
     </g>
    </g>
   </g>
   <g id="matplotlib.axis_2">
    <g id="ytick_1"/>
    <g id="ytick_2"/>
    <g id="ytick_3"/>
    <g id="ytick_4"/>
    <g id="ytick_5"/>
    <g id="ytick_6"/>
    <g id="text_13">
     <!-- $X(e^{\mathrm{j}\Omega})$ -->
     <g transform="translate(49.131816 199.504316)rotate(-90)scale(0.18 -0.18)">
      <defs>
       <path d="M 47.5 40.5625 
L 38.09375 62.40625 
C 39.40625 64.796875 42.40625 65.1875 43.59375 65.296875 
C 44.203125 65.296875 45.296875 65.296875 45.296875 67.0625 
C 45.296875 68.1875 44.40625 68.1875 43.796875 68.1875 
C 42.09375 68.1875 40.09375 68.1875 38.40625 68.1875 
L 32.59375 68.1875 
C 26.5 68.1875 22.09375 68.1875 22 68.1875 
C 21.203125 68.1875 20.203125 68.1875 20.203125 66.296875 
C 20.203125 65.296875 21.09375 65.296875 22.40625 65.296875 
C 28.203125 65.296875 28.59375 64.296875 29.59375 61.90625 
L 41.5 34.140625 
L 19.796875 10.828125 
C 16.203125 6.90625 11.90625 3.09375 4.5 3.09375 
C 3.296875 3 2.5 3 2.5 1.0625 
C 2.5 0.75 2.59375 0 3.703125 0 
C 5.09375 0 6.59375 0 8 0 
L 12.703125 0 
C 15.90625 0 19.40625 0 22.5 0 
C 23.203125 0 24.40625 0 24.40625 1.796875 
C 24.40625 2.796875 23.703125 2.890625 23.09375 2.890625 
C 21.09375 3.09375 19.796875 4.1875 19.796875 5.78125 
C 19.796875 7.484375 21 8.703125 23.90625 11.6875 
L 32.796875 21.375 
C 35 23.6875 40.296875 29.46875 42.5 31.65625 
L 53 7.078125 
C 53.09375 6.890625 53.5 5.890625 53.5 5.78125 
C 53.5 4.890625 51.296875 3.09375 48.09375 3.09375 
C 47.5 3.09375 46.40625 3.09375 46.40625 1.109375 
C 46.40625 0 47.40625 0 47.90625 0 
C 49.59375 0 51.59375 0 53.296875 0 
L 64.296875 0 
C 66.09375 0 68 0 69.703125 0 
C 70.40625 0 71.5 0 71.5 2.03125 
C 71.5 3.09375 70.5 3.09375 69.59375 3.09375 
C 63.59375 3.09375 63.40625 3.59375 61.703125 7.265625 
L 48.5 38.140625 
L 61.203125 51.8125 
C 62.203125 52.828125 64.5 55.34375 65.40625 56.34375 
C 69.703125 60.875 73.703125 65 81.796875 65 
C 82.796875 65.296875 83.796875 65.296875 83.796875 67.0625 
C 83.796875 68.1875 82.90625 68.1875 82.5 68.1875 
C 81.09375 68.1875 79.59375 68.1875 78.203125 68.1875 
L 73.59375 68.1875 
C 70.40625 68.1875 66.90625 68.1875 63.796875 68.1875 
C 63.09375 68.1875 61.90625 68.1875 61.90625 66.390625 
C 61.90625 65.390625 62.59375 65.296875 63.203125 65.296875 
C 64.796875 65.109375 66.5 64.3125 66.5 62.40625 
L 66.40625 62.21875 
C 66.296875 61.515625 66.09375 60.515625 65 59.328125 
z
" id="CMMI12-88"/>
       <path d="M 30.59375 -24.390625 
C 30.59375 -24.296875 30.59375 -24.09375 30.296875 -23.796875 
C 25.703125 -19.125 13.40625 -6.359375 13.40625 24.703125 
C 13.40625 55.765625 25.5 68.421875 30.40625 73.390625 
C 30.40625 73.5 30.59375 73.703125 30.59375 74 
C 30.59375 74.296875 30.296875 74.5 29.90625 74.5 
C 28.796875 74.5 20.296875 67.125 15.40625 56.15625 
C 10.40625 45.109375 9 34.359375 9 24.8125 
C 9 17.625 9.703125 5.484375 15.703125 -7.359375 
C 20.5 -17.734375 28.703125 -25 29.90625 -25 
C 30.40625 -25 30.59375 -24.796875 30.59375 -24.390625 
z
" id="CMR17-40"/>
       <path d="M 17.90625 23.109375 
C 20.59375 23.109375 27.40625 23.109375 32.203125 24.921875 
C 39.796875 27.859375 40.5 33.71875 40.5 35.53125 
C 40.5 39.96875 36.703125 44 30.09375 44 
C 19.59375 44 4.5 34.53125 4.5 16.765625 
C 4.5 6.28125 10.5 -1 19.59375 -1 
C 33.203125 -1 41.796875 9.515625 41.796875 10.8125 
C 41.796875 11.40625 41.203125 11.90625 40.796875 11.90625 
C 40.5 11.90625 40.40625 11.8125 39.5 10.921875 
C 33.09375 2.484375 23.59375 1 19.796875 1 
C 14.09375 1 11.09375 5.46875 11.09375 12.84375 
C 11.09375 14.234375 11.09375 16.734375 12.59375 23.109375 
z
M 13.09375 25 
C 17.40625 40.5 26.90625 42.015625 30.09375 42.015625 
C 34.5 42.015625 37.5 39.40625 37.5 35.578125 
C 37.5 25 21.5 25 17.296875 25 
z
" id="CMMI12-101"/>
       <path d="M 18.203125 61.921875 
C 18.203125 64.109375 16.40625 66 14.09375 66 
C 11.90625 66 10 64.21875 10 61.921875 
C 10 59.734375 11.796875 57.84375 14.09375 57.84375 
C 16.296875 57.84375 18.203125 59.640625 18.203125 61.921875 
z
M 5.703125 43.03125 
L 5.703125 40.4375 
C 12.296875 40.4375 13.09375 39.734375 13.09375 34.921875 
L 13.09375 -5.609375 
C 13.09375 -10.59375 12.203125 -18.40625 6.296875 -18.40625 
C 5.59375 -18.40625 2.90625 -18.40625 0.703125 -16.90625 
C 1.40625 -16.796875 3.90625 -16.109375 3.90625 -13.296875 
C 3.90625 -11.390625 2.59375 -9.703125 0.296875 -9.703125 
C -1.90625 -9.703125 -3.296875 -11.203125 -3.296875 -13.40625 
C -3.296875 -17.40625 1.09375 -20 6.203125 -20 
C 13.09375 -20 18.203125 -13.703125 18.203125 -5.1875 
L 18.203125 44.140625 
z
" id="CMR17-106"/>
       <path d="M 63.09375 14.609375 
L 61.296875 14.609375 
C 60.40625 10.015625 60.09375 8.796875 59.59375 7.203125 
C 59.09375 5.703125 58.796875 4.90625 53 4.90625 
L 44.90625 4.90625 
C 46 10.71875 48.40625 15.015625 52.59375 21.734375 
C 57.796875 30.234375 62.09375 37.140625 62.09375 45.46875 
C 62.09375 58.984375 49.296875 70 33.40625 70 
C 17.09375 70 4.59375 58.875 4.59375 45.46875 
C 4.59375 37.140625 9 30.03125 13.90625 22.125 
C 18.296875 15.015625 20.703125 10.71875 21.796875 4.90625 
L 13.703125 4.90625 
C 8 4.90625 7.703125 5.703125 7.203125 7.09375 
C 6.59375 8.703125 6.40625 10.015625 5.40625 14.609375 
L 3.59375 14.609375 
L 6.5 0 
L 21.59375 0 
C 23.703125 0 23.796875 0.09375 23.796875 1.59375 
C 23.796875 8.71875 20.09375 18.03125 18.40625 22.328125 
C 15.203125 30.140625 12.203125 37.75 12.203125 45.5625 
C 12.203125 60.484375 22.90625 68.390625 33.296875 68.390625 
C 44.203125 68.390625 54.5 60.171875 54.5 45.5625 
C 54.5 37.84375 51.796875 30.953125 48.09375 21.828125 
C 46.5 17.734375 42.90625 8.609375 42.90625 1.59375 
C 42.90625 0 43 0 45.09375 0 
L 60.203125 0 
z
" id="CMR17-10"/>
       <path d="M 26.296875 24.703125 
C 26.296875 31.875 25.59375 44.015625 19.59375 56.859375 
C 14.796875 67.234375 6.59375 74.5 5.40625 74.5 
C 5.09375 74.5 4.703125 74.390625 4.703125 73.890625 
C 4.703125 73.703125 4.796875 73.59375 4.90625 73.390625 
C 9.703125 68.40625 21.90625 55.75 21.90625 24.75 
C 21.90625 -6.359375 9.796875 -19.015625 4.90625 -24.015625 
C 4.796875 -24.203125 4.703125 -24.3125 4.703125 -24.5 
C 4.703125 -25 5.09375 -25 5.40625 -25 
C 6.5 -25 15 -17.625 19.90625 -6.65625 
C 24.90625 4.390625 26.296875 15.140625 26.296875 24.703125 
z
" id="CMR17-41"/>
      </defs>
      <use transform="scale(0.996264)" xlink:href="#CMMI12-88"/>
      <use transform="translate(88.792562 0)scale(0.996264)" xlink:href="#CMR17-40"/>
      <use transform="translate(124.07333 0)scale(0.996264)" xlink:href="#CMMI12-101"/>
      <use transform="translate(169.285331 36.153639)scale(0.697382)" xlink:href="#CMR17-106"/>
      <use transform="translate(188.516695 36.153639)scale(0.697382)" xlink:href="#CMR17-10"/>
      <use transform="translate(235.571532 0)scale(0.996264)" xlink:href="#CMR17-41"/>
     </g>
    </g>
   </g>
   <g id="line2d_12">
    <path clip-path="url(#p18ad90a1da)" d="M 57.6 295.488 
L 67.086 295.488 
L 93.312 53.568 
L 119.538 295.488 
L 138.51 295.488 
L 164.736 53.568 
L 190.962 295.488 
L 209.934 295.488 
L 236.16 53.568 
L 262.386 295.488 
L 281.358 295.488 
L 307.584 53.568 
L 333.81 295.488 
L 352.782 295.488 
L 379.008 53.568 
L 405.234 295.488 
L 414.5805 295.488 
L 414.5805 295.488 
" style="fill:none;stroke:#1f77b4;stroke-linecap:square;stroke-width:1.5;"/>
   </g>
   <g id="patch_3">
    <path d="M 57.6 307.584 
L 57.6 41.472 
" style="fill:none;stroke:#000000;stroke-linecap:square;stroke-linejoin:miter;stroke-width:0.8;"/>
   </g>
   <g id="patch_4">
    <path d="M 414.72 307.584 
L 414.72 41.472 
" style="fill:none;stroke:#000000;stroke-linecap:square;stroke-linejoin:miter;stroke-width:0.8;"/>
   </g>
   <g id="patch_5">
    <path d="M 57.6 307.584 
L 414.72 307.584 
" style="fill:none;stroke:#000000;stroke-linecap:square;stroke-linejoin:miter;stroke-width:0.8;"/>
   </g>
   <g id="patch_6">
    <path d="M 57.6 41.472 
L 414.72 41.472 
" style="fill:none;stroke:#000000;stroke-linecap:square;stroke-linejoin:miter;stroke-width:0.8;"/>
   </g>
  </g>
 </g>
 <defs>
  <clipPath id="p18ad90a1da">
   <rect height="266.112" width="357.12" x="57.6" y="41.472"/>
  </clipPath>
 </defs>
</svg>
