<?xml version="1.0" encoding="utf-8" standalone="no"?>
<!DOCTYPE svg PUBLIC "-//W3C//DTD SVG 1.1//EN"
  "http://www.w3.org/Graphics/SVG/1.1/DTD/svg11.dtd">
<!-- Created with matplotlib (https://matplotlib.org/) -->
<svg height="345.6pt" version="1.1" viewBox="0 0 460.8 345.6" width="460.8pt" xmlns="http://www.w3.org/2000/svg" xmlns:xlink="http://www.w3.org/1999/xlink">
 <metadata>
  <rdf:RDF xmlns:cc="http://creativecommons.org/ns#" xmlns:dc="http://purl.org/dc/elements/1.1/" xmlns:rdf="http://www.w3.org/1999/02/22-rdf-syntax-ns#">
   <cc:Work>
    <dc:type rdf:resource="http://purl.org/dc/dcmitype/StillImage"/>
    <dc:date>2020-10-04T19:20:23.210395</dc:date>
    <dc:format>image/svg+xml</dc:format>
    <dc:creator>
     <cc:Agent>
      <dc:title>Matplotlib v3.3.1, https://matplotlib.org/</dc:title>
     </cc:Agent>
    </dc:creator>
   </cc:Work>
  </rdf:RDF>
 </metadata>
 <defs>
  <style type="text/css">*{stroke-linecap:butt;stroke-linejoin:round;}</style>
 </defs>
 <g id="figure_1">
  <g id="patch_1">
   <path d="M 0 345.6 
L 460.8 345.6 
L 460.8 0 
L 0 0 
z
" style="fill:#ffffff;"/>
  </g>
  <g id="axes_1">
   <g id="patch_2">
    <path d="M 57.6 293.76 
L 414.72 293.76 
L 414.72 41.472 
L 57.6 41.472 
z
" style="fill:#ffffff;"/>
   </g>
   <g id="matplotlib.axis_1">
    <g id="xtick_1">
     <g id="line2d_1">
      <defs>
       <path d="M 0 0 
L 0 3.5 
" id="mc0bfdec5fe" style="stroke:#000000;stroke-width:0.8;"/>
      </defs>
      <g>
       <use style="stroke:#000000;stroke-width:0.8;" x="57.6" xlink:href="#mc0bfdec5fe" y="293.76"/>
      </g>
     </g>
     <g id="text_1">
      <!-- $-\omega_{s}$ -->
      <g transform="translate(42.264358 313.2133)scale(0.18 -0.18)">
       <defs>
        <path d="M 65.90625 23 
C 67.59375 23 69.40625 23 69.40625 25 
C 69.40625 27 67.59375 27 65.90625 27 
L 11.796875 27 
C 10.09375 27 8.296875 27 8.296875 25 
C 8.296875 23 10.09375 23 11.796875 23 
z
" id="CMSY10-0"/>
        <path d="M 59.40625 37.421875 
C 59.40625 40.3125 58.59375 44 55.09375 44 
C 53.09375 44 50.796875 41.515625 50.796875 39.515625 
C 50.796875 38.625 51.203125 38.03125 52 37.125 
C 53.5 35.4375 55.40625 32.75 55.40625 28.078125 
C 55.40625 24.484375 53.203125 18.8125 51.59375 15.734375 
C 48.796875 10.25 44.203125 5.578125 39 5.578125 
C 32.703125 5.578125 30.296875 9.609375 29.203125 15.234375 
C 30.296875 17.859375 32.59375 24.375 32.59375 27 
C 32.59375 28.09375 32.203125 29 30.90625 29 
C 30.203125 29 29.40625 28.609375 28.90625 27.796875 
C 27.5 25.59375 26.203125 17.640625 26.296875 15.53125 
C 24.40625 11.8125 19 5.578125 12.59375 5.578125 
C 5.90625 5.578125 4.09375 11.453125 4.09375 17.125 
C 4.09375 27.46875 10.59375 36.53125 12.40625 39.015625 
C 13.40625 40.515625 14.09375 41.515625 14.09375 41.703125 
C 14.09375 42.40625 13.703125 43.5 12.796875 43.5 
C 11.203125 43.5 10.703125 42.203125 9.90625 41.015625 
C 4.796875 33.140625 1.203125 22.09375 1.203125 12.546875 
C 1.203125 6.375 3.5 -1 11 -1 
C 19.296875 -1 24.5 6.109375 26.59375 9.90625 
C 27.40625 4.296875 30.40625 -1 37.703125 -1 
C 45.296875 -1 50.09375 5.671875 53.703125 13.734375 
C 56.296875 19.515625 59.40625 31.953125 59.40625 37.421875 
z
" id="CMMI12-33"/>
        <path d="M 22.796875 20 
C 24.5 19.703125 27.203125 19.109375 27.796875 19 
C 29.09375 18.625 33.59375 17.03125 33.59375 12.234375 
C 33.59375 9.15625 30.796875 1.09375 19.203125 1.09375 
C 17.09375 1.09375 9.59375 1.09375 7.59375 6.8125 
C 11.59375 6.3125 13.59375 9.421875 13.59375 11.640625 
C 13.59375 13.75 12.203125 14.84375 10.203125 14.84375 
C 8 14.84375 5.09375 13.140625 5.09375 8.625 
C 5.09375 2.703125 11.09375 -1 19.09375 -1 
C 34.296875 -1 38.796875 10.171875 38.796875 15.375 
C 38.796875 16.859375 38.796875 19.65625 35.59375 22.84375 
C 33.09375 25.25 30.703125 25.75 25.296875 26.84375 
C 22.59375 27.4375 18.296875 28.34375 18.296875 32.828125 
C 18.296875 34.828125 20.09375 42.015625 29.59375 42.015625 
C 33.796875 42.015625 37.90625 40.453125 38.90625 37 
C 34.5 37 34.296875 33.203125 34.296875 33.109375 
C 34.296875 31 36.203125 30.40625 37.09375 30.40625 
C 38.5 30.40625 41.296875 31.484375 41.296875 35.640625 
C 41.296875 39.765625 37.5 44 29.703125 44 
C 16.59375 44 13.09375 33.75 13.09375 29.671875 
C 13.09375 22.09375 20.5 20.5 22.796875 20 
z
" id="CMMI12-115"/>
       </defs>
       <use transform="scale(0.996264)" xlink:href="#CMSY10-0"/>
       <use transform="translate(77.487468 0)scale(0.996264)" xlink:href="#CMMI12-33"/>
       <use transform="translate(138.231221 -14.943915)scale(0.697382)" xlink:href="#CMMI12-115"/>
      </g>
     </g>
    </g>
    <g id="xtick_2">
     <g id="line2d_2">
      <g>
       <use style="stroke:#000000;stroke-width:0.8;" x="146.88" xlink:href="#mc0bfdec5fe" y="293.76"/>
      </g>
     </g>
     <g id="text_2">
      <!-- $-\omega_{s}/2$ -->
      <g transform="translate(122.793407 314.209564)scale(0.18 -0.18)">
       <defs>
        <path d="M 42.90625 71.28125 
C 42.90625 71.390625 43.5 72.90625 43.5 73.09375 
C 43.5 74.296875 42.5 75 41.703125 75 
C 41.203125 75 40.296875 75 39.5 72.796875 
L 6 -21.296875 
C 6 -21.40625 5.40625 -22.890625 5.40625 -23.09375 
C 5.40625 -24.296875 6.40625 -25 7.203125 -25 
C 7.796875 -25 8.703125 -24.890625 9.40625 -22.796875 
z
" id="CMMI12-61"/>
        <path d="M 41.703125 15.453125 
L 39.90625 15.453125 
C 38.90625 8.375 38.09375 7.171875 37.703125 6.5625 
C 37.203125 5.765625 30 5.765625 28.59375 5.765625 
L 9.40625 5.765625 
C 13 9.671875 20 16.75 28.5 24.953125 
C 34.59375 30.734375 41.703125 37.53125 41.703125 47.421875 
C 41.703125 59.21875 32.296875 66 21.796875 66 
C 10.796875 66 4.09375 56.3125 4.09375 47.34375 
C 4.09375 43.4375 7 42.9375 8.203125 42.9375 
C 9.203125 42.9375 12.203125 43.546875 12.203125 47.03125 
C 12.203125 50.109375 9.59375 51 8.203125 51 
C 7.59375 51 7 50.90625 6.59375 50.703125 
C 8.5 59.21875 14.296875 63.40625 20.40625 63.40625 
C 29.09375 63.40625 34.796875 56.515625 34.796875 47.421875 
C 34.796875 38.734375 29.703125 31.25 24 24.75 
L 4.09375 2.28125 
L 4.09375 0 
L 39.296875 0 
z
" id="CMR17-50"/>
       </defs>
       <use transform="scale(0.996264)" xlink:href="#CMSY10-0"/>
       <use transform="translate(77.487468 0)scale(0.996264)" xlink:href="#CMMI12-33"/>
       <use transform="translate(138.231221 -14.943915)scale(0.697382)" xlink:href="#CMMI12-115"/>
       <use transform="translate(170.894242 0)scale(0.996264)" xlink:href="#CMMI12-61"/>
       <use transform="translate(219.669161 0)scale(0.996264)" xlink:href="#CMR17-50"/>
      </g>
     </g>
    </g>
    <g id="xtick_3">
     <g id="line2d_3">
      <g>
       <use style="stroke:#000000;stroke-width:0.8;" x="236.16" xlink:href="#mc0bfdec5fe" y="293.76"/>
      </g>
     </g>
     <g id="text_3">
      <!-- 0 -->
      <g transform="translate(232.047857 313.2133)scale(0.18 -0.18)">
       <defs>
        <path d="M 42 31.640625 
C 42 37.75 41.90625 48.125 37.703125 56.109375 
C 34 63.109375 28.09375 65.59375 22.90625 65.59375 
C 18.09375 65.59375 12 63.40625 8.203125 56.203125 
C 4.203125 48.71875 3.796875 39.4375 3.796875 31.640625 
C 3.796875 25.953125 3.90625 17.28125 7 9.671875 
C 11.296875 -0.609375 19 -2 22.90625 -2 
C 27.5 -2 34.5 -0.109375 38.59375 9.375 
C 41.59375 16.28125 42 24.359375 42 31.640625 
z
M 22.90625 -0.40625 
C 16.5 -0.40625 12.703125 5.078125 11.296875 12.6875 
C 10.203125 18.5625 10.203125 27.15625 10.203125 32.75 
C 10.203125 40.4375 10.203125 46.828125 11.5 52.921875 
C 13.40625 61.390625 19 64 22.90625 64 
C 27 64 32.296875 61.296875 34.203125 53.125 
C 35.5 47.4375 35.59375 40.734375 35.59375 32.75 
C 35.59375 26.25 35.59375 18.265625 34.40625 12.375 
C 32.296875 1.484375 26.40625 -0.40625 22.90625 -0.40625 
z
" id="CMR17-48"/>
       </defs>
       <use transform="scale(0.996264)" xlink:href="#CMR17-48"/>
      </g>
     </g>
    </g>
    <g id="xtick_4">
     <g id="line2d_4">
      <g>
       <use style="stroke:#000000;stroke-width:0.8;" x="325.44" xlink:href="#mc0bfdec5fe" y="293.76"/>
      </g>
     </g>
     <g id="text_4">
      <!-- $\omega_{s}$ -->
      <g transform="translate(317.078229 313.2133)scale(0.18 -0.18)">
       <use transform="scale(0.996264)" xlink:href="#CMMI12-33"/>
       <use transform="translate(60.743753 -14.943915)scale(0.697382)" xlink:href="#CMMI12-115"/>
      </g>
     </g>
    </g>
    <g id="xtick_5">
     <g id="line2d_5">
      <g>
       <use style="stroke:#000000;stroke-width:0.8;" x="414.72" xlink:href="#mc0bfdec5fe" y="293.76"/>
      </g>
     </g>
     <g id="text_5">
      <!-- $\omega_{s}$ -->
      <g transform="translate(406.358229 313.2133)scale(0.18 -0.18)">
       <use transform="scale(0.996264)" xlink:href="#CMMI12-33"/>
       <use transform="translate(60.743753 -14.943915)scale(0.697382)" xlink:href="#CMMI12-115"/>
      </g>
     </g>
    </g>
    <g id="text_6">
     <!-- $\omega$ -->
     <g transform="translate(230.693067 335.146052)scale(0.18 -0.18)">
      <use transform="scale(0.996264)" xlink:href="#CMMI12-33"/>
     </g>
    </g>
   </g>
   <g id="matplotlib.axis_2">
    <g id="ytick_1">
     <g id="line2d_6">
      <defs>
       <path d="M 0 0 
L -3.5 0 
" id="m951ad8d336" style="stroke:#000000;stroke-width:0.8;"/>
      </defs>
      <g>
       <use style="stroke:#000000;stroke-width:0.8;" x="57.6" xlink:href="#m951ad8d336" y="283.287093"/>
      </g>
     </g>
     <g id="text_7">
      <!-- $\mathdefault{0}$ -->
      <g transform="translate(42.375714 289.513744)scale(0.18 -0.18)">
       <use transform="scale(0.996264)" xlink:href="#CMR17-48"/>
      </g>
     </g>
    </g>
    <g id="ytick_2">
     <g id="line2d_7">
      <g>
       <use style="stroke:#000000;stroke-width:0.8;" x="57.6" xlink:href="#m951ad8d336" y="54.36986"/>
      </g>
     </g>
     <g id="text_8">
      <!-- $\mathdefault{1}$ -->
      <g transform="translate(42.375714 60.59651)scale(0.18 -0.18)">
       <defs>
        <path d="M 26.59375 63.40625 
C 26.59375 65.5 26.5 65.5 25.09375 65.5 
C 21.203125 61.1875 15.296875 59.796875 9.703125 59.796875 
C 9.40625 59.796875 8.90625 59.796875 8.796875 59.5 
C 8.703125 59.296875 8.703125 59.09375 8.703125 57 
C 11.796875 57 17 57.59375 21 59.984375 
L 21 7.203125 
C 21 3.6875 20.796875 2.5 12.203125 2.5 
L 9.203125 2.5 
L 9.203125 0 
C 14 0 19 0 23.796875 0 
C 28.59375 0 33.59375 0 38.40625 0 
L 38.40625 2.5 
L 35.40625 2.5 
C 26.796875 2.5 26.59375 3.59375 26.59375 7.15625 
z
" id="CMR17-49"/>
       </defs>
       <use transform="scale(0.996264)" xlink:href="#CMR17-49"/>
      </g>
     </g>
    </g>
    <g id="text_9">
     <!-- $X(\mathrm j\omega)$ -->
     <g transform="translate(33.90753 190.219112)rotate(-90)scale(0.18 -0.18)">
      <defs>
       <path d="M 47.5 40.5625 
L 38.09375 62.40625 
C 39.40625 64.796875 42.40625 65.1875 43.59375 65.296875 
C 44.203125 65.296875 45.296875 65.296875 45.296875 67.0625 
C 45.296875 68.1875 44.40625 68.1875 43.796875 68.1875 
C 42.09375 68.1875 40.09375 68.1875 38.40625 68.1875 
L 32.59375 68.1875 
C 26.5 68.1875 22.09375 68.1875 22 68.1875 
C 21.203125 68.1875 20.203125 68.1875 20.203125 66.296875 
C 20.203125 65.296875 21.09375 65.296875 22.40625 65.296875 
C 28.203125 65.296875 28.59375 64.296875 29.59375 61.90625 
L 41.5 34.140625 
L 19.796875 10.828125 
C 16.203125 6.90625 11.90625 3.09375 4.5 3.09375 
C 3.296875 3 2.5 3 2.5 1.0625 
C 2.5 0.75 2.59375 0 3.703125 0 
C 5.09375 0 6.59375 0 8 0 
L 12.703125 0 
C 15.90625 0 19.40625 0 22.5 0 
C 23.203125 0 24.40625 0 24.40625 1.796875 
C 24.40625 2.796875 23.703125 2.890625 23.09375 2.890625 
C 21.09375 3.09375 19.796875 4.1875 19.796875 5.78125 
C 19.796875 7.484375 21 8.703125 23.90625 11.6875 
L 32.796875 21.375 
C 35 23.6875 40.296875 29.46875 42.5 31.65625 
L 53 7.078125 
C 53.09375 6.890625 53.5 5.890625 53.5 5.78125 
C 53.5 4.890625 51.296875 3.09375 48.09375 3.09375 
C 47.5 3.09375 46.40625 3.09375 46.40625 1.109375 
C 46.40625 0 47.40625 0 47.90625 0 
C 49.59375 0 51.59375 0 53.296875 0 
L 64.296875 0 
C 66.09375 0 68 0 69.703125 0 
C 70.40625 0 71.5 0 71.5 2.03125 
C 71.5 3.09375 70.5 3.09375 69.59375 3.09375 
C 63.59375 3.09375 63.40625 3.59375 61.703125 7.265625 
L 48.5 38.140625 
L 61.203125 51.8125 
C 62.203125 52.828125 64.5 55.34375 65.40625 56.34375 
C 69.703125 60.875 73.703125 65 81.796875 65 
C 82.796875 65.296875 83.796875 65.296875 83.796875 67.0625 
C 83.796875 68.1875 82.90625 68.1875 82.5 68.1875 
C 81.09375 68.1875 79.59375 68.1875 78.203125 68.1875 
L 73.59375 68.1875 
C 70.40625 68.1875 66.90625 68.1875 63.796875 68.1875 
C 63.09375 68.1875 61.90625 68.1875 61.90625 66.390625 
C 61.90625 65.390625 62.59375 65.296875 63.203125 65.296875 
C 64.796875 65.109375 66.5 64.3125 66.5 62.40625 
L 66.40625 62.21875 
C 66.296875 61.515625 66.09375 60.515625 65 59.328125 
z
" id="CMMI12-88"/>
       <path d="M 30.59375 -24.390625 
C 30.59375 -24.296875 30.59375 -24.09375 30.296875 -23.796875 
C 25.703125 -19.125 13.40625 -6.359375 13.40625 24.703125 
C 13.40625 55.765625 25.5 68.421875 30.40625 73.390625 
C 30.40625 73.5 30.59375 73.703125 30.59375 74 
C 30.59375 74.296875 30.296875 74.5 29.90625 74.5 
C 28.796875 74.5 20.296875 67.125 15.40625 56.15625 
C 10.40625 45.109375 9 34.359375 9 24.8125 
C 9 17.625 9.703125 5.484375 15.703125 -7.359375 
C 20.5 -17.734375 28.703125 -25 29.90625 -25 
C 30.40625 -25 30.59375 -24.796875 30.59375 -24.390625 
z
" id="CMR17-40"/>
       <path d="M 18.203125 61.921875 
C 18.203125 64.109375 16.40625 66 14.09375 66 
C 11.90625 66 10 64.21875 10 61.921875 
C 10 59.734375 11.796875 57.84375 14.09375 57.84375 
C 16.296875 57.84375 18.203125 59.640625 18.203125 61.921875 
z
M 5.703125 43.03125 
L 5.703125 40.4375 
C 12.296875 40.4375 13.09375 39.734375 13.09375 34.921875 
L 13.09375 -5.609375 
C 13.09375 -10.59375 12.203125 -18.40625 6.296875 -18.40625 
C 5.59375 -18.40625 2.90625 -18.40625 0.703125 -16.90625 
C 1.40625 -16.796875 3.90625 -16.109375 3.90625 -13.296875 
C 3.90625 -11.390625 2.59375 -9.703125 0.296875 -9.703125 
C -1.90625 -9.703125 -3.296875 -11.203125 -3.296875 -13.40625 
C -3.296875 -17.40625 1.09375 -20 6.203125 -20 
C 13.09375 -20 18.203125 -13.703125 18.203125 -5.1875 
L 18.203125 44.140625 
z
" id="CMR17-106"/>
       <path d="M 26.296875 24.703125 
C 26.296875 31.875 25.59375 44.015625 19.59375 56.859375 
C 14.796875 67.234375 6.59375 74.5 5.40625 74.5 
C 5.09375 74.5 4.703125 74.390625 4.703125 73.890625 
C 4.703125 73.703125 4.796875 73.59375 4.90625 73.390625 
C 9.703125 68.40625 21.90625 55.75 21.90625 24.75 
C 21.90625 -6.359375 9.796875 -19.015625 4.90625 -24.015625 
C 4.796875 -24.203125 4.703125 -24.3125 4.703125 -24.5 
C 4.703125 -25 5.09375 -25 5.40625 -25 
C 6.5 -25 15 -17.625 19.90625 -6.65625 
C 24.90625 4.390625 26.296875 15.140625 26.296875 24.703125 
z
" id="CMR17-41"/>
      </defs>
      <use transform="scale(0.996264)" xlink:href="#CMMI12-88"/>
      <use transform="translate(88.792562 0)scale(0.996264)" xlink:href="#CMR17-40"/>
      <use transform="translate(124.07333 0)scale(0.996264)" xlink:href="#CMR17-106"/>
      <use transform="translate(151.546842 0)scale(0.996264)" xlink:href="#CMMI12-33"/>
      <use transform="translate(215.865188 0)scale(0.996264)" xlink:href="#CMR17-41"/>
     </g>
    </g>
   </g>
   <g id="patch_3">
    <path clip-path="url(#pe5dd12ef22)" d="M 104.0256 289.010024 
C 92.186934 289.010024 80.831555 286.95981 72.460353 283.310918 
C 64.089152 279.662026 59.3856 274.712372 59.3856 269.552059 
C 59.3856 264.391747 64.089152 259.442093 72.460353 255.793201 
C 80.831555 252.144309 92.186934 250.094095 104.0256 250.094095 
C 115.864266 250.094095 127.219645 252.144309 135.590847 255.793201 
C 143.962048 259.442093 148.6656 264.391747 148.6656 269.552059 
C 148.6656 274.712372 143.962048 279.662026 135.590847 283.310918 
C 127.219645 286.95981 115.864266 289.010024 104.0256 289.010024 
z
" style="fill:none;stroke:#d62728;stroke-linejoin:miter;stroke-width:2;"/>
   </g>
   <g id="patch_4">
    <path clip-path="url(#pe5dd12ef22)" d="M 368.2944 289.010024 
C 380.133066 289.010024 391.488445 286.95981 399.859647 283.310918 
C 408.230848 279.662026 412.9344 274.712372 412.9344 269.552059 
C 412.9344 264.391747 408.230848 259.442093 399.859647 255.793201 
C 391.488445 252.144309 380.133066 250.094095 368.2944 250.094095 
C 356.455734 250.094095 345.100355 252.144309 336.729153 255.793201 
C 328.357952 259.442093 323.6544 264.391747 323.6544 269.552059 
C 323.6544 274.712372 328.357952 279.662026 336.729153 283.310918 
C 345.100355 286.95981 356.455734 289.010024 368.2944 289.010024 
z
" style="fill:none;stroke:#d62728;stroke-linejoin:miter;stroke-width:2;"/>
   </g>
   <g id="line2d_8">
    <path clip-path="url(#pe5dd12ef22)" d="M 57.6 273.104202 
L 58.2975 258.54908 
L 58.995 278.856262 
L 59.6925 266.14079 
L 60.39 271.942863 
L 61.0875 274.946453 
L 61.785 270.992651 
L 62.4825 256.14047 
L 63.18 260.049097 
L 63.8775 265.980873 
L 64.575 280.430498 
L 65.2725 272.809081 
L 65.97 269.472673 
L 66.6675 279.3351 
L 67.365 270.420128 
L 68.0625 278.695594 
L 68.76 259.890678 
L 69.4575 280.358926 
L 70.155 269.195249 
L 70.8525 259.96698 
L 71.55 258.351469 
L 72.2475 272.440878 
L 72.945 272.515688 
L 73.6425 280.044247 
L 74.34 279.252238 
L 75.0375 269.705376 
L 75.735 278.829478 
L 76.4325 270.440196 
L 77.13 254.3022 
L 77.8275 270.869193 
L 78.525 260.139254 
L 79.2225 267.478852 
L 79.92 257.344534 
L 80.6175 270.98111 
L 81.315 269.617139 
L 82.0125 272.657026 
L 82.71 277.906811 
L 83.4075 264.069476 
L 84.105 274.650574 
L 84.8025 263.256322 
L 85.5 280.132331 
L 86.1975 281.585641 
L 86.895 271.211804 
L 87.5925 265.187 
L 88.29 276.279305 
L 88.9875 276.581359 
L 89.685 259.049946 
L 90.3825 266.473134 
L 91.08 270.587588 
L 91.7775 269.386932 
L 92.475 266.935335 
L 93.1725 274.266718 
L 93.87 266.459122 
L 94.5675 281.857563 
L 95.265 275.901617 
L 95.9625 278.838978 
L 96.66 277.472997 
L 97.3575 253.194437 
L 98.055 265.138865 
L 98.7525 271.962239 
L 99.45 274.594374 
L 100.1475 263.348258 
L 100.845 278.934024 
L 101.5425 261.086108 
L 102.24 270.124006 
L 102.9375 276.003577 
L 103.635 275.91711 
L 104.3325 278.080421 
L 105.03 277.943309 
L 105.7275 259.864059 
L 106.425 261.759018 
L 107.1225 268.962491 
L 107.82 278.965774 
L 108.5175 280.611243 
L 109.9125 259.030248 
L 110.61 272.082364 
L 111.3075 269.617051 
L 112.005 265.596932 
L 112.7025 274.136272 
L 113.4 267.13564 
L 114.0975 257.463115 
L 114.795 282.292364 
L 115.4925 276.842331 
L 116.19 272.60081 
L 116.8875 271.737362 
L 117.585 282.140576 
L 118.2825 272.854875 
L 118.98 265.482626 
L 119.6775 270.060345 
L 120.375 277.707015 
L 121.0725 263.15687 
L 121.77 259.330856 
L 122.4675 277.333598 
L 123.165 276.583343 
L 123.8625 279.76877 
L 124.56 267.751481 
L 125.2575 279.139458 
L 125.955 266.631704 
L 126.6525 268.814775 
L 127.35 280.333234 
L 128.0475 269.799728 
L 128.745 271.562518 
L 129.4425 277.684277 
L 130.14 268.930083 
L 130.8375 271.970596 
L 131.535 263.86723 
L 132.2325 268.788369 
L 132.93 268.230175 
L 133.6275 270.968521 
L 134.325 265.244255 
L 135.0225 262.064444 
L 135.72 266.193618 
L 136.4175 264.283339 
L 137.115 272.953033 
L 137.8125 278.177184 
L 138.51 244.188056 
L 139.905 268.801322 
L 140.6025 267.855947 
L 141.3 258.056209 
L 141.9975 269.667878 
L 142.695 263.023016 
L 143.3925 268.460958 
L 144.09 268.240655 
L 144.7875 280.33115 
L 145.485 274.418313 
L 146.1825 270.183895 
L 146.88 267.086786 
L 147.5775 265.559847 
L 148.275 264.885085 
L 148.9725 269.023027 
L 149.67 278.935881 
L 150.3675 275.103558 
L 151.065 277.795495 
L 151.7625 268.21671 
L 152.46 270.24262 
L 153.1575 261.063235 
L 153.855 281.328415 
L 154.5525 267.804329 
L 155.25 262.972546 
L 155.9475 281.90288 
L 156.645 272.329136 
L 157.3425 270.04833 
L 158.04 261.891016 
L 158.7375 274.138782 
L 159.435 250.508654 
L 160.83 273.218474 
L 161.5275 270.309113 
L 162.225 280.828886 
L 162.9225 264.887191 
L 163.62 266.436051 
L 164.3175 270.435331 
L 165.015 280.219735 
L 165.7125 249.02138 
L 166.41 266.253081 
L 167.1075 274.895599 
L 167.805 275.397402 
L 168.5025 281.155214 
L 169.2 266.746205 
L 169.8975 274.254073 
L 170.595 261.734477 
L 171.2925 277.873012 
L 171.99 273.794236 
L 172.6875 267.519849 
L 173.385 267.005235 
L 174.0825 263.770814 
L 174.78 262.345004 
L 175.4775 275.703175 
L 176.175 265.414764 
L 176.8725 268.289529 
L 177.57 279.907876 
L 178.2675 265.178598 
L 178.965 276.383736 
L 179.6625 273.919844 
L 180.36 264.695947 
L 181.0575 276.336315 
L 181.755 268.403988 
L 182.4525 261.780052 
L 183.15 258.966658 
L 183.8475 277.609969 
L 184.545 279.498716 
L 185.2425 265.468184 
L 185.94 265.818869 
L 186.6375 268.16835 
L 187.335 277.062035 
L 188.0325 260.84659 
L 188.73 269.256359 
L 189.4275 264.151958 
L 190.125 270.488434 
L 190.8225 279.185237 
L 191.52 272.942434 
L 192.2175 276.593458 
L 192.915 259.263426 
L 193.6125 255.17402 
L 194.31 243.899999 
L 195.0075 255.519676 
L 195.705 255.30535 
L 197.1 238.333467 
L 197.7975 237.337433 
L 198.495 238.541464 
L 199.1925 237.705441 
L 200.5875 225.359028 
L 201.285 224.777776 
L 201.9825 220.849076 
L 202.68 218.612248 
L 204.075 210.970409 
L 204.7725 209.026979 
L 205.47 203.596179 
L 206.1675 201.725427 
L 210.3525 180.818522 
L 212.445 170.649264 
L 215.9325 153.333597 
L 236.16 52.939636 
L 266.1525 201.725427 
L 266.85 203.596179 
L 267.5475 209.026979 
L 268.245 210.970409 
L 269.64 218.612248 
L 270.3375 220.849076 
L 271.035 224.777776 
L 271.7325 225.359028 
L 273.1275 237.705441 
L 273.825 238.541464 
L 274.5225 237.337433 
L 275.22 238.333467 
L 276.615 255.30535 
L 277.3125 255.519676 
L 278.01 243.899999 
L 278.7075 255.17402 
L 279.405 259.263426 
L 280.1025 276.593458 
L 280.8 272.942434 
L 281.4975 279.185237 
L 282.195 270.488434 
L 282.8925 264.151958 
L 283.59 269.256359 
L 284.2875 260.84659 
L 284.985 277.062035 
L 285.6825 268.16835 
L 286.38 265.818869 
L 287.0775 265.468184 
L 287.775 279.498716 
L 288.4725 277.609969 
L 289.17 258.966658 
L 289.8675 261.780052 
L 290.565 268.403988 
L 291.2625 276.336315 
L 291.96 264.695947 
L 292.6575 273.919844 
L 293.355 276.383736 
L 294.0525 265.178598 
L 294.75 279.907876 
L 295.4475 268.289529 
L 296.145 265.414764 
L 296.8425 275.703175 
L 297.54 262.345004 
L 298.2375 263.770814 
L 298.935 267.005235 
L 299.6325 267.519849 
L 300.33 273.794236 
L 301.0275 277.873012 
L 301.725 261.734477 
L 302.4225 274.254073 
L 303.12 266.746205 
L 303.8175 281.155214 
L 304.515 275.397402 
L 305.2125 274.895599 
L 305.91 266.253081 
L 306.6075 249.02138 
L 307.305 280.219735 
L 308.0025 270.435331 
L 308.7 266.436051 
L 309.3975 264.887191 
L 310.095 280.828886 
L 310.7925 270.309113 
L 311.49 273.218474 
L 312.885 250.508654 
L 313.5825 274.138782 
L 314.28 261.891016 
L 314.9775 270.04833 
L 315.675 272.329136 
L 316.3725 281.90288 
L 317.07 262.972546 
L 317.7675 267.804329 
L 318.465 281.328415 
L 319.1625 261.063235 
L 319.86 270.24262 
L 320.5575 268.21671 
L 321.255 277.795495 
L 321.9525 275.103558 
L 322.65 278.935881 
L 323.3475 269.023027 
L 324.045 264.885085 
L 324.7425 265.559847 
L 325.44 267.086786 
L 326.1375 270.183895 
L 326.835 274.418313 
L 327.5325 280.33115 
L 328.23 268.240655 
L 328.9275 268.460958 
L 329.625 263.023016 
L 330.3225 269.667878 
L 331.02 258.056209 
L 331.7175 267.855947 
L 332.415 268.801322 
L 333.81 244.188056 
L 334.5075 278.177184 
L 335.205 272.953033 
L 335.9025 264.283339 
L 336.6 266.193618 
L 337.2975 262.064444 
L 337.995 265.244255 
L 338.6925 270.968521 
L 339.39 268.230175 
L 340.0875 268.788369 
L 340.785 263.86723 
L 341.4825 271.970596 
L 342.18 268.930083 
L 342.8775 277.684277 
L 343.575 271.562518 
L 344.2725 269.799728 
L 344.97 280.333234 
L 345.6675 268.814775 
L 346.365 266.631704 
L 347.0625 279.139458 
L 347.76 267.751481 
L 348.4575 279.76877 
L 349.155 276.583343 
L 349.8525 277.333598 
L 350.55 259.330856 
L 351.2475 263.15687 
L 351.945 277.707015 
L 352.6425 270.060345 
L 353.34 265.482626 
L 354.0375 272.854875 
L 354.735 282.140576 
L 355.4325 271.737362 
L 356.13 272.60081 
L 356.8275 276.842331 
L 357.525 282.292364 
L 358.2225 257.463115 
L 358.92 267.13564 
L 359.6175 274.136272 
L 360.315 265.596932 
L 361.0125 269.617051 
L 361.71 272.082364 
L 362.4075 259.030248 
L 363.8025 280.611243 
L 364.5 278.965774 
L 365.1975 268.962491 
L 365.895 261.759018 
L 366.5925 259.864059 
L 367.29 277.943309 
L 367.9875 278.080421 
L 368.685 275.91711 
L 369.3825 276.003577 
L 370.08 270.124006 
L 370.7775 261.086108 
L 371.475 278.934024 
L 372.1725 263.348258 
L 372.87 274.594374 
L 373.5675 271.962239 
L 374.265 265.138865 
L 374.9625 253.194437 
L 375.66 277.472997 
L 376.3575 278.838978 
L 377.055 275.901617 
L 377.7525 281.857563 
L 378.45 266.459122 
L 379.1475 274.266718 
L 379.845 266.935335 
L 380.5425 269.386932 
L 381.24 270.587588 
L 381.9375 266.473134 
L 382.635 259.049946 
L 383.3325 276.581359 
L 384.03 276.279305 
L 384.7275 265.187 
L 385.425 271.211804 
L 386.1225 281.585641 
L 386.82 280.132331 
L 387.5175 263.256322 
L 388.215 274.650574 
L 388.9125 264.069476 
L 389.61 277.906811 
L 390.3075 272.657026 
L 391.005 269.617139 
L 391.7025 270.98111 
L 392.4 257.344534 
L 393.0975 267.478852 
L 393.795 260.139254 
L 394.4925 270.869193 
L 395.19 254.3022 
L 395.8875 270.440196 
L 396.585 278.829478 
L 397.2825 269.705376 
L 397.98 279.252238 
L 398.6775 280.044247 
L 399.375 272.515688 
L 400.0725 272.440878 
L 400.77 258.351469 
L 401.4675 259.96698 
L 402.165 269.195249 
L 402.8625 280.358926 
L 403.56 259.890678 
L 404.2575 278.695594 
L 404.955 270.420128 
L 405.6525 279.3351 
L 406.35 269.472673 
L 407.0475 272.809081 
L 407.745 280.430498 
L 408.4425 265.980873 
L 409.14 260.049097 
L 409.8375 256.14047 
L 410.535 270.992651 
L 411.2325 274.946453 
L 411.93 271.942863 
L 412.6275 266.14079 
L 413.325 278.856262 
L 414.0225 258.54908 
L 414.0225 258.54908 
" style="fill:none;stroke:#1f77b4;stroke-linecap:square;stroke-width:1.5;"/>
   </g>
   <g id="patch_5">
    <path d="M 57.6 293.76 
L 57.6 41.472 
" style="fill:none;stroke:#000000;stroke-linecap:square;stroke-linejoin:miter;stroke-width:0.8;"/>
   </g>
   <g id="patch_6">
    <path d="M 414.72 293.76 
L 414.72 41.472 
" style="fill:none;stroke:#000000;stroke-linecap:square;stroke-linejoin:miter;stroke-width:0.8;"/>
   </g>
   <g id="patch_7">
    <path d="M 57.6 293.76 
L 414.72 293.76 
" style="fill:none;stroke:#000000;stroke-linecap:square;stroke-linejoin:miter;stroke-width:0.8;"/>
   </g>
   <g id="patch_8">
    <path d="M 57.6 41.472 
L 414.72 41.472 
" style="fill:none;stroke:#000000;stroke-linecap:square;stroke-linejoin:miter;stroke-width:0.8;"/>
   </g>
  </g>
 </g>
 <defs>
  <clipPath id="pe5dd12ef22">
   <rect height="252.288" width="357.12" x="57.6" y="41.472"/>
  </clipPath>
 </defs>
</svg>
