<?xml version="1.0" encoding="utf-8" standalone="no"?>
<!DOCTYPE svg PUBLIC "-//W3C//DTD SVG 1.1//EN"
  "http://www.w3.org/Graphics/SVG/1.1/DTD/svg11.dtd">
<!-- Created with matplotlib (https://matplotlib.org/) -->
<svg height="432pt" version="1.1" viewBox="0 0 1008 432" width="1008pt" xmlns="http://www.w3.org/2000/svg" xmlns:xlink="http://www.w3.org/1999/xlink">
 <metadata>
  <rdf:RDF xmlns:cc="http://creativecommons.org/ns#" xmlns:dc="http://purl.org/dc/elements/1.1/" xmlns:rdf="http://www.w3.org/1999/02/22-rdf-syntax-ns#">
   <cc:Work>
    <dc:type rdf:resource="http://purl.org/dc/dcmitype/StillImage"/>
    <dc:date>2020-10-01T16:15:02.532740</dc:date>
    <dc:format>image/svg+xml</dc:format>
    <dc:creator>
     <cc:Agent>
      <dc:title>Matplotlib v3.3.1, https://matplotlib.org/</dc:title>
     </cc:Agent>
    </dc:creator>
   </cc:Work>
  </rdf:RDF>
 </metadata>
 <defs>
  <style type="text/css">*{stroke-linecap:butt;stroke-linejoin:round;}</style>
 </defs>
 <g id="figure_1">
  <g id="patch_1">
   <path d="M 0 432 
L 1008 432 
L 1008 0 
L 0 0 
z
" style="fill:#ffffff;"/>
  </g>
  <g id="axes_1">
   <g id="patch_2">
    <path d="M 126 384.48 
L 907.2 384.48 
L 907.2 51.84 
L 126 51.84 
z
" style="fill:#ffffff;"/>
   </g>
   <g id="axes_2">
    <g id="patch_3">
     <path d="M 907.2 384.48 
L 907.2 384.48 
L 907.2 51.84 
L 907.2 51.84 
z
" style="fill:#ffffff;"/>
    </g>
    <g id="matplotlib.axis_1"/>
    <g id="matplotlib.axis_2">
     <g id="ytick_1">
      <g id="line2d_1">
       <defs>
        <path d="M 0 0 
L 3.5 0 
" id="m8113c638da" style="stroke:#000000;stroke-width:0.8;"/>
       </defs>
       <g>
        <use style="stroke:#000000;stroke-width:0.8;" x="907.2" xlink:href="#m8113c638da" y="369.36"/>
       </g>
      </g>
      <g id="text_1">
       <!-- 0 -->
       <g transform="translate(914.2 375.58665)scale(0.18 -0.18)">
        <defs>
         <path d="M 42 31.640625 
C 42 37.75 41.90625 48.125 37.703125 56.109375 
C 34 63.109375 28.09375 65.59375 22.90625 65.59375 
C 18.09375 65.59375 12 63.40625 8.203125 56.203125 
C 4.203125 48.71875 3.796875 39.4375 3.796875 31.640625 
C 3.796875 25.953125 3.90625 17.28125 7 9.671875 
C 11.296875 -0.609375 19 -2 22.90625 -2 
C 27.5 -2 34.5 -0.109375 38.59375 9.375 
C 41.59375 16.28125 42 24.359375 42 31.640625 
z
M 22.90625 -0.40625 
C 16.5 -0.40625 12.703125 5.078125 11.296875 12.6875 
C 10.203125 18.5625 10.203125 27.15625 10.203125 32.75 
C 10.203125 40.4375 10.203125 46.828125 11.5 52.921875 
C 13.40625 61.390625 19 64 22.90625 64 
C 27 64 32.296875 61.296875 34.203125 53.125 
C 35.5 47.4375 35.59375 40.734375 35.59375 32.75 
C 35.59375 26.25 35.59375 18.265625 34.40625 12.375 
C 32.296875 1.484375 26.40625 -0.40625 22.90625 -0.40625 
z
" id="CMR17-48"/>
        </defs>
        <use transform="scale(0.996264)" xlink:href="#CMR17-48"/>
       </g>
      </g>
     </g>
     <g id="ytick_2">
      <g id="line2d_2">
       <g>
        <use style="stroke:#000000;stroke-width:0.8;" x="907.2" xlink:href="#m8113c638da" y="66.96"/>
       </g>
      </g>
      <g id="text_2">
       <!-- $T_s$ -->
       <g transform="translate(914.2 73.18665)scale(0.18 -0.18)">
        <defs>
         <path d="M 41.703125 61.09375 
C 42.296875 63.5 42.5 64.390625 44 64.796875 
C 44.796875 65 48.09375 65 50.203125 65 
C 60.203125 65 64.90625 64.59375 64.90625 56.78125 
C 64.90625 55.265625 64.5 51.484375 63.90625 47.765625 
L 63.796875 46.5625 
C 63.796875 46.15625 64.203125 45.5625 64.796875 45.5625 
C 65.796875 45.5625 65.796875 46.0625 66.09375 47.65625 
L 69 65.375 
C 69.203125 66.296875 69.203125 66.5 69.203125 66.796875 
C 69.203125 67.890625 68.59375 67.890625 66.59375 67.890625 
L 11.90625 67.890625 
C 9.59375 67.890625 9.5 67.796875 8.90625 66 
L 2.796875 47.96875 
C 2.703125 47.75 2.40625 46.65625 2.40625 46.5625 
C 2.40625 46.0625 2.796875 45.5625 3.40625 45.5625 
C 4.203125 45.5625 4.40625 45.953125 4.796875 47.25 
C 9 59.390625 11.09375 65 24.40625 65 
L 31.09375 65 
C 33.5 65 34.5 65 34.5 63.890625 
C 34.5 63.578125 34.5 63.390625 34 61.578125 
L 20.59375 7.796875 
C 19.59375 3.890625 19.40625 2.890625 8.796875 2.890625 
C 6.296875 2.890625 5.59375 2.890625 5.59375 1 
C 5.59375 0 6.703125 0 7.203125 0 
C 9.703125 0 12.296875 0 14.796875 0 
L 30.40625 0 
C 32.90625 0 35.59375 0 38.09375 0 
C 39.203125 0 40.203125 0 40.203125 1.890625 
C 40.203125 2.890625 39.5 2.890625 36.90625 2.890625 
C 27.90625 2.890625 27.90625 3.796875 27.90625 5.296875 
C 27.90625 5.40625 27.90625 6.109375 28.296875 7.71875 
z
" id="CMMI12-84"/>
         <path d="M 22.796875 20 
C 24.5 19.703125 27.203125 19.109375 27.796875 19 
C 29.09375 18.625 33.59375 17.03125 33.59375 12.234375 
C 33.59375 9.15625 30.796875 1.09375 19.203125 1.09375 
C 17.09375 1.09375 9.59375 1.09375 7.59375 6.8125 
C 11.59375 6.3125 13.59375 9.421875 13.59375 11.640625 
C 13.59375 13.75 12.203125 14.84375 10.203125 14.84375 
C 8 14.84375 5.09375 13.140625 5.09375 8.625 
C 5.09375 2.703125 11.09375 -1 19.09375 -1 
C 34.296875 -1 38.796875 10.171875 38.796875 15.375 
C 38.796875 16.859375 38.796875 19.65625 35.59375 22.84375 
C 33.09375 25.25 30.703125 25.75 25.296875 26.84375 
C 22.59375 27.4375 18.296875 28.34375 18.296875 32.828125 
C 18.296875 34.828125 20.09375 42.015625 29.59375 42.015625 
C 33.796875 42.015625 37.90625 40.453125 38.90625 37 
C 34.5 37 34.296875 33.203125 34.296875 33.109375 
C 34.296875 31 36.203125 30.40625 37.09375 30.40625 
C 38.5 30.40625 41.296875 31.484375 41.296875 35.640625 
C 41.296875 39.765625 37.5 44 29.703125 44 
C 16.59375 44 13.09375 33.75 13.09375 29.671875 
C 13.09375 22.09375 20.5 20.5 22.796875 20 
z
" id="CMMI12-115"/>
        </defs>
        <use transform="scale(0.996264)" xlink:href="#CMMI12-84"/>
        <use transform="translate(57.175044 -14.943915)scale(0.697382)" xlink:href="#CMMI12-115"/>
       </g>
      </g>
     </g>
     <g id="text_3">
      <!-- $H_r(\mathrm j\omega)$ -->
      <g transform="translate(947.714595 243.235317)rotate(-90)scale(0.18 -0.18)">
       <defs>
        <path d="M 74.796875 60.734375 
C 75.703125 64.109375 75.90625 65.109375 83 65.109375 
C 84.796875 65.109375 85.796875 65.109375 85.796875 66.90625 
C 85.796875 68 84.90625 68 84.296875 68 
C 82.5 68 80.40625 68 78.5 68 
L 66.703125 68 
C 64.796875 68 62.703125 68 60.796875 68 
C 60.09375 68 58.90625 68 58.90625 66.109375 
C 58.90625 65.109375 59.59375 65.109375 61.5 65.109375 
C 67.5 65.109375 67.5 64.3125 67.5 63.21875 
C 67.5 63.03125 67.5 62.421875 67.09375 60.9375 
L 61 36.890625 
L 30.796875 36.890625 
L 36.796875 60.734375 
C 37.703125 64.109375 37.90625 65.109375 45 65.109375 
C 46.796875 65.109375 47.796875 65.109375 47.796875 66.90625 
C 47.796875 68 46.90625 68 46.296875 68 
C 44.5 68 42.40625 68 40.5 68 
L 28.703125 68 
C 26.796875 68 24.703125 68 22.796875 68 
C 22.09375 68 20.90625 68 20.90625 66.109375 
C 20.90625 65.109375 21.59375 65.109375 23.5 65.109375 
C 29.5 65.109375 29.5 64.3125 29.5 63.21875 
C 29.5 63.03125 29.5 62.421875 29.09375 60.921875 
L 15.59375 7.375 
C 14.703125 3.890625 14.5 2.890625 7.59375 2.890625 
C 5.296875 2.890625 4.59375 2.890625 4.59375 1 
C 4.59375 0 5.703125 0 6 0 
C 7.796875 0 9.90625 0 11.796875 0 
L 23.59375 0 
C 25.5 0 27.59375 0 29.5 0 
C 30.296875 0 31.40625 0 31.40625 1.890625 
C 31.40625 2.890625 30.5 2.890625 29 2.890625 
C 22.90625 2.890625 22.90625 3.6875 22.90625 4.6875 
C 22.90625 4.796875 22.90625 5.484375 23.09375 6.28125 
L 30 34 
L 60.296875 34 
C 58.59375 27.390625 53.5 6.5 53.296875 5.875 
C 52.203125 2.890625 50.59375 2.890625 44.703125 2.890625 
C 43.5 2.890625 42.59375 2.890625 42.59375 1 
C 42.59375 0 43.703125 0 44 0 
C 45.796875 0 47.90625 0 49.796875 0 
L 61.59375 0 
C 63.5 0 65.59375 0 67.5 0 
C 68.296875 0 69.40625 0 69.40625 1.890625 
C 69.40625 2.890625 68.5 2.890625 67 2.890625 
C 60.90625 2.890625 60.90625 3.6875 60.90625 4.6875 
C 60.90625 4.796875 60.90625 5.484375 61.09375 6.28125 
z
" id="CMMI12-72"/>
        <path d="M 38.90625 40.8125 
C 35.796875 40.21875 34.203125 38.015625 34.203125 35.828125 
C 34.203125 33.421875 36.09375 32.625 37.5 32.625 
C 40.296875 32.625 42.59375 35.03125 42.59375 38.015625 
C 42.59375 41.21875 39.5 44 34.5 44 
C 30.5 44 25.90625 42.203125 21.703125 36.125 
C 21 41.40625 17 44 13 44 
C 9.09375 44 7.09375 41.015625 5.90625 38.8125 
C 4.203125 35.21875 2.703125 29.234375 2.703125 28.734375 
C 2.703125 28.34375 3.09375 27.84375 3.796875 27.84375 
C 4.59375 27.84375 4.703125 27.9375 5.296875 30.234375 
C 6.796875 36.21875 8.703125 42.015625 12.703125 42.015625 
C 15.09375 42.015625 15.796875 40.3125 15.796875 37.421875 
C 15.796875 35.21875 14.796875 31.328125 14.09375 28.234375 
L 11.296875 17.46875 
C 10.90625 15.5625 9.796875 11.078125 9.296875 9.28125 
C 8.59375 6.6875 7.5 2 7.5 1.5 
C 7.5 0.09375 8.59375 -1 10.09375 -1 
C 11.203125 -1 13.09375 -0.296875 13.703125 1.703125 
C 14 2.5 17.703125 17.5625 18.296875 19.859375 
C 18.796875 22.046875 19.40625 24.15625 19.90625 26.34375 
C 20.296875 27.734375 20.703125 29.34375 21 30.640625 
C 21.296875 31.53125 24 36.421875 26.5 38.625 
C 27.703125 39.71875 30.296875 42.015625 34.40625 42.015625 
C 36 42.015625 37.59375 41.71875 38.90625 40.8125 
z
" id="CMMI12-114"/>
        <path d="M 30.59375 -24.390625 
C 30.59375 -24.296875 30.59375 -24.09375 30.296875 -23.796875 
C 25.703125 -19.125 13.40625 -6.359375 13.40625 24.703125 
C 13.40625 55.765625 25.5 68.421875 30.40625 73.390625 
C 30.40625 73.5 30.59375 73.703125 30.59375 74 
C 30.59375 74.296875 30.296875 74.5 29.90625 74.5 
C 28.796875 74.5 20.296875 67.125 15.40625 56.15625 
C 10.40625 45.109375 9 34.359375 9 24.8125 
C 9 17.625 9.703125 5.484375 15.703125 -7.359375 
C 20.5 -17.734375 28.703125 -25 29.90625 -25 
C 30.40625 -25 30.59375 -24.796875 30.59375 -24.390625 
z
" id="CMR17-40"/>
        <path d="M 18.203125 61.921875 
C 18.203125 64.109375 16.40625 66 14.09375 66 
C 11.90625 66 10 64.21875 10 61.921875 
C 10 59.734375 11.796875 57.84375 14.09375 57.84375 
C 16.296875 57.84375 18.203125 59.640625 18.203125 61.921875 
z
M 5.703125 43.03125 
L 5.703125 40.4375 
C 12.296875 40.4375 13.09375 39.734375 13.09375 34.921875 
L 13.09375 -5.609375 
C 13.09375 -10.59375 12.203125 -18.40625 6.296875 -18.40625 
C 5.59375 -18.40625 2.90625 -18.40625 0.703125 -16.90625 
C 1.40625 -16.796875 3.90625 -16.109375 3.90625 -13.296875 
C 3.90625 -11.390625 2.59375 -9.703125 0.296875 -9.703125 
C -1.90625 -9.703125 -3.296875 -11.203125 -3.296875 -13.40625 
C -3.296875 -17.40625 1.09375 -20 6.203125 -20 
C 13.09375 -20 18.203125 -13.703125 18.203125 -5.1875 
L 18.203125 44.140625 
z
" id="CMR17-106"/>
        <path d="M 59.40625 37.421875 
C 59.40625 40.3125 58.59375 44 55.09375 44 
C 53.09375 44 50.796875 41.515625 50.796875 39.515625 
C 50.796875 38.625 51.203125 38.03125 52 37.125 
C 53.5 35.4375 55.40625 32.75 55.40625 28.078125 
C 55.40625 24.484375 53.203125 18.8125 51.59375 15.734375 
C 48.796875 10.25 44.203125 5.578125 39 5.578125 
C 32.703125 5.578125 30.296875 9.609375 29.203125 15.234375 
C 30.296875 17.859375 32.59375 24.375 32.59375 27 
C 32.59375 28.09375 32.203125 29 30.90625 29 
C 30.203125 29 29.40625 28.609375 28.90625 27.796875 
C 27.5 25.59375 26.203125 17.640625 26.296875 15.53125 
C 24.40625 11.8125 19 5.578125 12.59375 5.578125 
C 5.90625 5.578125 4.09375 11.453125 4.09375 17.125 
C 4.09375 27.46875 10.59375 36.53125 12.40625 39.015625 
C 13.40625 40.515625 14.09375 41.515625 14.09375 41.703125 
C 14.09375 42.40625 13.703125 43.5 12.796875 43.5 
C 11.203125 43.5 10.703125 42.203125 9.90625 41.015625 
C 4.796875 33.140625 1.203125 22.09375 1.203125 12.546875 
C 1.203125 6.375 3.5 -1 11 -1 
C 19.296875 -1 24.5 6.109375 26.59375 9.90625 
C 27.40625 4.296875 30.40625 -1 37.703125 -1 
C 45.296875 -1 50.09375 5.671875 53.703125 13.734375 
C 56.296875 19.515625 59.40625 31.953125 59.40625 37.421875 
z
" id="CMMI12-33"/>
        <path d="M 26.296875 24.703125 
C 26.296875 31.875 25.59375 44.015625 19.59375 56.859375 
C 14.796875 67.234375 6.59375 74.5 5.40625 74.5 
C 5.09375 74.5 4.703125 74.390625 4.703125 73.890625 
C 4.703125 73.703125 4.796875 73.59375 4.90625 73.390625 
C 9.703125 68.40625 21.90625 55.75 21.90625 24.75 
C 21.90625 -6.359375 9.796875 -19.015625 4.90625 -24.015625 
C 4.796875 -24.203125 4.703125 -24.3125 4.703125 -24.5 
C 4.703125 -25 5.09375 -25 5.40625 -25 
C 6.5 -25 15 -17.625 19.90625 -6.65625 
C 24.90625 4.390625 26.296875 15.140625 26.296875 24.703125 
z
" id="CMR17-41"/>
       </defs>
       <use transform="scale(0.996264)" xlink:href="#CMMI12-72"/>
       <use transform="translate(80.824837 -14.943915)scale(0.697382)" xlink:href="#CMMI12-114"/>
       <use transform="translate(113.992237 0)scale(0.996264)" xlink:href="#CMR17-40"/>
       <use transform="translate(149.273005 0)scale(0.996264)" xlink:href="#CMR17-106"/>
       <use transform="translate(176.746518 0)scale(0.996264)" xlink:href="#CMMI12-33"/>
       <use transform="translate(241.064864 0)scale(0.996264)" xlink:href="#CMR17-41"/>
      </g>
     </g>
    </g>
    <g id="patch_4">
     <path d="M 907.2 384.48 
L 907.2 51.84 
" style="fill:none;stroke:#000000;stroke-linecap:square;stroke-linejoin:miter;stroke-width:0.8;"/>
    </g>
   </g>
   <g id="matplotlib.axis_3">
    <g id="xtick_1">
     <g id="line2d_3">
      <defs>
       <path d="M 0 0 
L 0 3.5 
" id="mbead2a6e77" style="stroke:#000000;stroke-width:0.8;"/>
      </defs>
      <g>
       <use style="stroke:#000000;stroke-width:0.8;" x="204.150528" xlink:href="#mbead2a6e77" y="384.48"/>
      </g>
     </g>
     <g id="text_4">
      <!-- $-2\omega_s$ -->
      <g transform="translate(184.702743 403.9333)scale(0.18 -0.18)">
       <defs>
        <path d="M 65.90625 23 
C 67.59375 23 69.40625 23 69.40625 25 
C 69.40625 27 67.59375 27 65.90625 27 
L 11.796875 27 
C 10.09375 27 8.296875 27 8.296875 25 
C 8.296875 23 10.09375 23 11.796875 23 
z
" id="CMSY10-0"/>
        <path d="M 41.703125 15.453125 
L 39.90625 15.453125 
C 38.90625 8.375 38.09375 7.171875 37.703125 6.5625 
C 37.203125 5.765625 30 5.765625 28.59375 5.765625 
L 9.40625 5.765625 
C 13 9.671875 20 16.75 28.5 24.953125 
C 34.59375 30.734375 41.703125 37.53125 41.703125 47.421875 
C 41.703125 59.21875 32.296875 66 21.796875 66 
C 10.796875 66 4.09375 56.3125 4.09375 47.34375 
C 4.09375 43.4375 7 42.9375 8.203125 42.9375 
C 9.203125 42.9375 12.203125 43.546875 12.203125 47.03125 
C 12.203125 50.109375 9.59375 51 8.203125 51 
C 7.59375 51 7 50.90625 6.59375 50.703125 
C 8.5 59.21875 14.296875 63.40625 20.40625 63.40625 
C 29.09375 63.40625 34.796875 56.515625 34.796875 47.421875 
C 34.796875 38.734375 29.703125 31.25 24 24.75 
L 4.09375 2.28125 
L 4.09375 0 
L 39.296875 0 
z
" id="CMR17-50"/>
       </defs>
       <use transform="scale(0.996264)" xlink:href="#CMSY10-0"/>
       <use transform="translate(77.487468 0)scale(0.996264)" xlink:href="#CMR17-50"/>
       <use transform="translate(123.177945 0)scale(0.996264)" xlink:href="#CMMI12-33"/>
       <use transform="translate(183.921698 -14.943915)scale(0.697382)" xlink:href="#CMMI12-115"/>
      </g>
     </g>
    </g>
    <g id="xtick_2">
     <g id="line2d_4">
      <g>
       <use style="stroke:#000000;stroke-width:0.8;" x="360.451583" xlink:href="#mbead2a6e77" y="384.48"/>
      </g>
     </g>
     <g id="text_5">
      <!-- $\omega_s$ -->
      <g transform="translate(352.089812 403.9333)scale(0.18 -0.18)">
       <use transform="scale(0.996264)" xlink:href="#CMMI12-33"/>
       <use transform="translate(60.743753 -14.943915)scale(0.697382)" xlink:href="#CMMI12-115"/>
      </g>
     </g>
    </g>
    <g id="xtick_3">
     <g id="line2d_5">
      <g>
       <use style="stroke:#000000;stroke-width:0.8;" x="516.752638" xlink:href="#mbead2a6e77" y="384.48"/>
      </g>
     </g>
     <g id="text_6">
      <!-- 0 -->
      <g transform="translate(512.640495 403.9333)scale(0.18 -0.18)">
       <use transform="scale(0.996264)" xlink:href="#CMR17-48"/>
      </g>
     </g>
    </g>
    <g id="xtick_4">
     <g id="line2d_6">
      <g>
       <use style="stroke:#000000;stroke-width:0.8;" x="673.053693" xlink:href="#mbead2a6e77" y="384.48"/>
      </g>
     </g>
     <g id="text_7">
      <!-- $\omega_s$ -->
      <g transform="translate(664.691922 403.9333)scale(0.18 -0.18)">
       <use transform="scale(0.996264)" xlink:href="#CMMI12-33"/>
       <use transform="translate(60.743753 -14.943915)scale(0.697382)" xlink:href="#CMMI12-115"/>
      </g>
     </g>
    </g>
    <g id="xtick_5">
     <g id="line2d_7">
      <g>
       <use style="stroke:#000000;stroke-width:0.8;" x="829.354748" xlink:href="#mbead2a6e77" y="384.48"/>
      </g>
     </g>
     <g id="text_8">
      <!-- $2\omega_s$ -->
      <g transform="translate(816.880834 403.9333)scale(0.18 -0.18)">
       <use transform="scale(0.996264)" xlink:href="#CMR17-50"/>
       <use transform="translate(45.690477 0)scale(0.996264)" xlink:href="#CMMI12-33"/>
       <use transform="translate(106.43423 -14.943915)scale(0.697382)" xlink:href="#CMMI12-115"/>
      </g>
     </g>
    </g>
    <g id="text_9">
     <!-- $\omega$ -->
     <g transform="translate(511.133067 423.874664)scale(0.18 -0.18)">
      <use transform="scale(0.996264)" xlink:href="#CMMI12-33"/>
     </g>
    </g>
   </g>
   <g id="matplotlib.axis_4">
    <g id="ytick_3">
     <g id="line2d_8">
      <defs>
       <path d="M 0 0 
L -3.5 0 
" id="m4675290921" style="stroke:#000000;stroke-width:0.8;"/>
      </defs>
      <g>
       <use style="stroke:#000000;stroke-width:0.8;" x="126" xlink:href="#m4675290921" y="369.36"/>
      </g>
     </g>
     <g id="text_10">
      <!-- 0 -->
      <g transform="translate(110.775714 375.58665)scale(0.18 -0.18)">
       <use transform="scale(0.996264)" xlink:href="#CMR17-48"/>
      </g>
     </g>
    </g>
    <g id="ytick_4">
     <g id="line2d_9">
      <g>
       <use style="stroke:#000000;stroke-width:0.8;" x="126" xlink:href="#m4675290921" y="66.96"/>
      </g>
     </g>
     <g id="text_11">
      <!-- $\frac{2\pi}{T_s}$ -->
      <g transform="translate(105.43171 74.535162)scale(0.18 -0.18)">
       <defs>
        <path d="M 25.90625 37.625 
L 37.203125 37.625 
C 34.5 26.4375 32.796875 19.15625 32.796875 11.1875 
C 32.796875 9.78125 32.796875 -1 36.90625 -1 
C 39 -1 40.796875 0.890625 40.796875 2.59375 
C 40.796875 3.078125 40.796875 3.28125 40.09375 4.78125 
C 37.40625 11.671875 37.40625 20.25 37.40625 20.953125 
C 37.40625 21.546875 37.40625 28.625 39.5 37.625 
L 50.703125 37.625 
C 52 37.625 55.296875 37.625 55.296875 40.8125 
C 55.296875 43 53.40625 43 51.59375 43 
L 18.703125 43 
C 16.40625 43 13 43 8.40625 38.125 
C 5.796875 35.21875 2.59375 29.9375 2.59375 29.34375 
C 2.59375 28.75 3.09375 28.546875 3.703125 28.546875 
C 4.40625 28.546875 4.5 28.84375 5 29.4375 
C 10.203125 37.625 15.40625 37.625 17.90625 37.625 
L 23.59375 37.625 
C 21.40625 30.140625 18.90625 21.453125 10.703125 4 
C 9.90625 2.40625 9.90625 2.1875 9.90625 1.59375 
C 9.90625 -0.5 11.703125 -1 12.59375 -1 
C 15.5 -1 16.296875 1.59375 17.5 5.78125 
C 19.09375 10.875 19.09375 11.078125 20.09375 15.0625 
z
" id="CMMI12-25"/>
       </defs>
       <use transform="translate(0 39.226102)scale(0.697382)" xlink:href="#CMR17-50"/>
       <use transform="translate(31.983182 39.226102)scale(0.697382)" xlink:href="#CMMI12-25"/>
       <use transform="translate(4.862457 -34.355253)scale(0.697382)" xlink:href="#CMMI12-84"/>
       <use transform="translate(44.884813 -44.815949)scale(0.498132)" xlink:href="#CMMI12-115"/>
       <path d="M 0 22.914133 
L 73.220403 22.914133 
L 73.220403 26.899083 
L 0 26.899083 
L 0 22.914133 
z
"/>
      </g>
     </g>
    </g>
    <g id="text_12">
     <!-- $X_s(\mathrm j\omega)$ -->
     <g transform="translate(96.963526 243.202109)rotate(-90)scale(0.18 -0.18)">
      <defs>
       <path d="M 47.5 40.5625 
L 38.09375 62.40625 
C 39.40625 64.796875 42.40625 65.1875 43.59375 65.296875 
C 44.203125 65.296875 45.296875 65.296875 45.296875 67.0625 
C 45.296875 68.1875 44.40625 68.1875 43.796875 68.1875 
C 42.09375 68.1875 40.09375 68.1875 38.40625 68.1875 
L 32.59375 68.1875 
C 26.5 68.1875 22.09375 68.1875 22 68.1875 
C 21.203125 68.1875 20.203125 68.1875 20.203125 66.296875 
C 20.203125 65.296875 21.09375 65.296875 22.40625 65.296875 
C 28.203125 65.296875 28.59375 64.296875 29.59375 61.90625 
L 41.5 34.140625 
L 19.796875 10.828125 
C 16.203125 6.90625 11.90625 3.09375 4.5 3.09375 
C 3.296875 3 2.5 3 2.5 1.0625 
C 2.5 0.75 2.59375 0 3.703125 0 
C 5.09375 0 6.59375 0 8 0 
L 12.703125 0 
C 15.90625 0 19.40625 0 22.5 0 
C 23.203125 0 24.40625 0 24.40625 1.796875 
C 24.40625 2.796875 23.703125 2.890625 23.09375 2.890625 
C 21.09375 3.09375 19.796875 4.1875 19.796875 5.78125 
C 19.796875 7.484375 21 8.703125 23.90625 11.6875 
L 32.796875 21.375 
C 35 23.6875 40.296875 29.46875 42.5 31.65625 
L 53 7.078125 
C 53.09375 6.890625 53.5 5.890625 53.5 5.78125 
C 53.5 4.890625 51.296875 3.09375 48.09375 3.09375 
C 47.5 3.09375 46.40625 3.09375 46.40625 1.109375 
C 46.40625 0 47.40625 0 47.90625 0 
C 49.59375 0 51.59375 0 53.296875 0 
L 64.296875 0 
C 66.09375 0 68 0 69.703125 0 
C 70.40625 0 71.5 0 71.5 2.03125 
C 71.5 3.09375 70.5 3.09375 69.59375 3.09375 
C 63.59375 3.09375 63.40625 3.59375 61.703125 7.265625 
L 48.5 38.140625 
L 61.203125 51.8125 
C 62.203125 52.828125 64.5 55.34375 65.40625 56.34375 
C 69.703125 60.875 73.703125 65 81.796875 65 
C 82.796875 65.296875 83.796875 65.296875 83.796875 67.0625 
C 83.796875 68.1875 82.90625 68.1875 82.5 68.1875 
C 81.09375 68.1875 79.59375 68.1875 78.203125 68.1875 
L 73.59375 68.1875 
C 70.40625 68.1875 66.90625 68.1875 63.796875 68.1875 
C 63.09375 68.1875 61.90625 68.1875 61.90625 66.390625 
C 61.90625 65.390625 62.59375 65.296875 63.203125 65.296875 
C 64.796875 65.109375 66.5 64.3125 66.5 62.40625 
L 66.40625 62.21875 
C 66.296875 61.515625 66.09375 60.515625 65 59.328125 
z
" id="CMMI12-88"/>
      </defs>
      <use transform="scale(0.996264)" xlink:href="#CMMI12-88"/>
      <use transform="translate(80.960224 -14.943915)scale(0.697382)" xlink:href="#CMMI12-115"/>
      <use transform="translate(113.623244 0)scale(0.996264)" xlink:href="#CMR17-40"/>
      <use transform="translate(148.904012 0)scale(0.996264)" xlink:href="#CMR17-106"/>
      <use transform="translate(176.377525 0)scale(0.996264)" xlink:href="#CMMI12-33"/>
      <use transform="translate(240.695871 0)scale(0.996264)" xlink:href="#CMR17-41"/>
     </g>
    </g>
   </g>
   <g id="line2d_10">
    <path clip-path="url(#p0e490377f0)" d="M 126 369.36 
L 149.506213 369.36 
L 149.811489 66.96 
L 204.150528 369.36 
L 258.489566 66.96 
L 258.794842 369.36 
L 305.807268 369.36 
L 306.112544 66.96 
L 360.451583 369.36 
L 414.790621 66.96 
L 415.095897 369.36 
L 462.108324 369.36 
L 462.413599 66.96 
L 516.752638 369.36 
L 571.091676 66.96 
L 571.396952 369.36 
L 618.409379 369.36 
L 618.714654 66.96 
L 673.053693 369.36 
L 727.392732 66.96 
L 727.698007 369.36 
L 774.710434 369.36 
L 775.015709 66.96 
L 829.354748 369.36 
L 883.693787 66.96 
L 883.999062 369.36 
L 907.2 369.36 
L 907.2 369.36 
" style="fill:none;stroke:#1f77b4;stroke-linecap:square;stroke-width:1.5;"/>
   </g>
   <g id="line2d_11">
    <path clip-path="url(#p0e490377f0)" d="M 126 308.88 
L 129.052755 308.989271 
L 132.10551 309.316754 
L 135.158265 309.861463 
L 138.21102 310.621757 
L 141.263775 311.595344 
L 144.31653 312.779288 
L 147.369285 314.170013 
L 150.42204 315.763319 
L 153.474795 317.554385 
L 156.52755 319.537784 
L 159.580305 321.7075 
L 164.159437 325.29684 
L 168.73857 329.265826 
L 173.317702 333.587168 
L 177.896835 338.231041 
L 182.475967 343.16525 
L 188.581477 350.136126 
L 194.686987 357.474938 
L 202.318875 367.024862 
L 203.845252 368.969959 
L 205.37163 367.796852 
L 226.740914 340.49795 
L 232.846424 333.083695 
L 238.951934 326.030704 
L 243.531067 321.038948 
L 248.110199 316.348837 
L 252.689332 312.000646 
L 257.268464 308.033167 
L 260.321219 305.618075 
L 263.373974 303.399226 
L 266.426729 301.386724 
L 269.479484 299.590239 
L 272.532239 298.018976 
L 275.584994 296.681648 
L 278.637749 295.586459 
L 281.690504 294.741074 
L 284.743259 294.152601 
L 287.796014 293.827572 
L 290.848769 293.771921 
L 293.901524 293.990969 
L 296.954279 294.489406 
L 300.007034 295.27128 
L 303.059789 296.339979 
L 306.112544 297.698224 
L 309.165299 299.348059 
L 312.218054 301.29084 
L 315.270809 303.52723 
L 318.323564 306.057195 
L 321.376319 308.88 
L 324.429074 311.994209 
L 327.481829 315.397681 
L 330.534584 319.087579 
L 333.587339 323.060366 
L 336.640094 327.311815 
L 339.692849 331.837015 
L 344.271981 339.125696 
L 348.851114 346.995941 
L 353.430246 355.422828 
L 358.009379 364.37827 
L 359.535756 367.475581 
L 361.062134 368.09304 
L 365.641266 358.327259 
L 370.220399 348.122248 
L 376.325909 333.899148 
L 382.431419 319.061626 
L 390.063306 299.810618 
L 399.221571 275.964834 
L 429.749121 195.645817 
L 437.381008 176.611182 
L 443.486518 162.016048 
L 449.592028 148.108998 
L 454.171161 138.197249 
L 458.750293 128.779801 
L 463.329426 119.899254 
L 467.908558 111.595895 
L 472.487691 103.907491 
L 475.540445 99.140954 
L 478.5932 94.673042 
L 481.645955 90.512837 
L 484.69871 86.668804 
L 487.751465 83.148772 
L 490.80422 79.959919 
L 493.856975 77.108751 
L 496.90973 74.601092 
L 499.962485 72.442064 
L 503.01524 70.636083 
L 506.067995 69.186843 
L 509.12075 68.097309 
L 512.173505 67.369711 
L 515.22626 67.005539 
L 518.279015 67.005539 
L 521.33177 67.369711 
L 524.384525 68.097309 
L 527.43728 69.186843 
L 530.490035 70.636083 
L 533.54279 72.442064 
L 536.595545 74.601092 
L 539.6483 77.108751 
L 542.701055 79.959919 
L 545.75381 83.148772 
L 548.806565 86.668804 
L 551.85932 90.512837 
L 554.912075 94.673042 
L 557.96483 99.140954 
L 561.017585 103.907491 
L 565.596717 111.595895 
L 570.17585 119.899254 
L 574.754982 128.779801 
L 579.334115 138.197249 
L 583.913247 148.108998 
L 588.49238 158.47035 
L 594.59789 172.904154 
L 600.7034 187.939539 
L 608.335287 207.398399 
L 617.493552 231.408402 
L 641.915592 295.883752 
L 649.547479 315.268363 
L 655.652989 330.243393 
L 661.758499 344.629547 
L 667.864009 358.327259 
L 672.443142 368.09304 
L 673.969519 367.475581 
L 678.548652 358.350722 
L 683.127784 349.744377 
L 687.706917 341.685657 
L 692.286049 334.200552 
L 696.865182 327.311815 
L 699.917937 323.060366 
L 702.970692 319.087579 
L 706.023447 315.397681 
L 709.076202 311.994209 
L 712.128957 308.88 
L 715.181712 306.057195 
L 718.234467 303.52723 
L 721.287222 301.29084 
L 724.339977 299.348059 
L 727.392732 297.698224 
L 730.445487 296.339979 
L 733.498242 295.27128 
L 736.550996 294.489406 
L 739.603751 293.990969 
L 742.656506 293.771921 
L 745.709261 293.827572 
L 748.762016 294.152601 
L 751.814771 294.741074 
L 754.867526 295.586459 
L 757.920281 296.681648 
L 760.973036 298.018976 
L 764.025791 299.590239 
L 767.078546 301.386724 
L 770.131301 303.399226 
L 773.184056 305.618075 
L 776.236811 308.033167 
L 780.815944 312.000646 
L 785.395076 316.348837 
L 789.974209 321.038948 
L 794.553341 326.030704 
L 800.658851 333.083695 
L 806.764361 340.49795 
L 814.396249 350.116509 
L 828.133646 367.796852 
L 829.660023 368.969959 
L 838.818288 357.474938 
L 844.923798 350.136126 
L 851.029308 343.16525 
L 855.608441 338.231041 
L 860.187573 333.587168 
L 864.766706 329.265826 
L 869.345838 325.29684 
L 873.924971 321.7075 
L 876.977726 319.537784 
L 880.030481 317.554385 
L 883.083236 315.763319 
L 886.135991 314.170013 
L 889.188746 312.779288 
L 892.241501 311.595344 
L 895.294256 310.621757 
L 898.347011 309.861463 
L 901.399766 309.316754 
L 904.452521 308.989271 
L 905.978898 308.907323 
L 905.978898 308.907323 
" style="fill:none;stroke:#ff7f0e;stroke-dasharray:4,4;stroke-dashoffset:0;stroke-width:2;"/>
   </g>
   <g id="line2d_12">
    <path clip-path="url(#p0e490377f0)" d="M 126 369.36 
L 149.506213 369.36 
L 149.811489 315.428674 
L 160.496131 331.628707 
L 165.685815 339.076782 
L 169.959672 344.836353 
L 173.622978 349.431387 
L 176.981008 353.318988 
L 180.339039 356.857488 
L 183.391794 359.742181 
L 186.139273 362.047523 
L 188.886753 364.060864 
L 191.328957 365.593795 
L 193.771161 366.875752 
L 196.213365 367.898803 
L 198.655569 368.656075 
L 200.792497 369.096088 
L 202.929426 369.324985 
L 205.066354 369.340248 
L 207.203283 369.140031 
L 209.340211 368.723169 
L 211.47714 368.089184 
L 213.614068 367.238293 
L 215.750996 366.171413 
L 218.1932 364.689753 
L 220.635404 362.931664 
L 223.077608 360.901893 
L 225.825088 358.301107 
L 228.572567 355.374314 
L 231.320047 352.133696 
L 234.372802 348.182113 
L 237.730832 343.434305 
L 241.088863 338.298549 
L 244.752169 332.297137 
L 249.026026 324.8393 
L 253.910434 315.829942 
L 258.489566 307.044245 
L 258.794842 369.36 
L 305.807268 369.36 
L 306.112544 297.698224 
L 313.439156 311.212151 
L 322.902696 328.618528 
L 327.787104 337.136069 
L 331.755686 343.633028 
L 335.113716 348.745947 
L 338.166471 353.029543 
L 340.913951 356.546523 
L 343.66143 359.707118 
L 346.103634 362.189947 
L 348.545838 364.341192 
L 350.682767 365.933735 
L 352.819695 367.240345 
L 354.651348 368.121851 
L 356.483001 368.773996 
L 358.314654 369.188278 
L 360.146307 369.356459 
L 361.97796 369.270584 
L 363.809613 368.922988 
L 365.641266 368.306311 
L 367.472919 367.413511 
L 369.304572 366.23787 
L 371.136225 364.77301 
L 372.967878 363.012902 
L 374.799531 360.951876 
L 376.631184 358.58463 
L 378.768113 355.429266 
L 380.905041 351.843263 
L 383.04197 347.820202 
L 385.178898 343.354417 
L 387.621102 337.7023 
L 390.063306 331.459494 
L 392.50551 324.621294 
L 395.252989 316.212553 
L 398.000469 307.043489 
L 400.747948 297.113765 
L 403.800703 285.191071 
L 406.853458 272.337814 
L 409.906213 258.563587 
L 413.264244 242.364015 
L 414.790621 234.643353 
L 415.095897 369.36 
L 462.108324 369.36 
L 462.413599 121.630442 
L 464.855803 128.404499 
L 467.603283 136.697565 
L 470.350762 145.677988 
L 473.403517 156.429196 
L 476.761547 169.148897 
L 480.119578 182.749168 
L 483.782884 198.518766 
L 487.751465 216.606816 
L 492.025322 237.129133 
L 496.90973 261.72332 
L 502.404689 290.571325 
L 509.426026 328.728301 
L 516.752638 369.36 
L 528.658382 303.709311 
L 535.069168 269.624395 
L 540.258851 243.17157 
L 544.837984 220.918017 
L 549.111841 201.23611 
L 553.080422 184.027153 
L 556.743728 169.148897 
L 560.101758 156.429196 
L 563.154513 145.677988 
L 566.207268 135.74169 
L 568.954748 127.526596 
L 571.091676 121.630442 
L 571.396952 369.36 
L 618.409379 369.36 
L 618.714654 234.643353 
L 622.072685 251.335079 
L 625.430715 266.937983 
L 628.788746 281.432435 
L 631.841501 293.635094 
L 634.894256 304.902586 
L 637.641735 314.240738 
L 640.389215 322.818293 
L 643.136694 330.637361 
L 645.578898 336.954363 
L 648.021102 342.680011 
L 650.463306 347.820202 
L 652.600234 351.843263 
L 654.737163 355.429266 
L 656.874091 358.58463 
L 659.01102 361.316507 
L 660.842673 363.327002 
L 662.674326 365.037498 
L 664.505979 366.453726 
L 666.337632 367.581775 
L 668.169285 368.42808 
L 670.000938 368.999412 
L 671.832591 369.302868 
L 673.664244 369.34586 
L 675.495897 369.136102 
L 677.32755 368.681597 
L 679.159203 367.990628 
L 680.990856 367.07174 
L 683.127784 365.723396 
L 685.264713 364.091199 
L 687.401641 362.189947 
L 689.843845 359.707118 
L 692.286049 356.915926 
L 695.033529 353.436847 
L 698.086284 349.190808 
L 701.444314 344.113561 
L 705.10762 338.163629 
L 709.381477 330.791786 
L 714.876436 320.84531 
L 727.392732 297.698224 
L 727.698007 369.36 
L 774.710434 369.36 
L 775.015709 307.044245 
L 781.426495 319.260451 
L 786.310903 328.090389 
L 790.58476 335.346818 
L 794.248066 341.145824 
L 797.606096 346.07432 
L 800.964127 350.596298 
L 804.016882 354.328322 
L 806.764361 357.36117 
L 809.511841 360.071861 
L 812.25932 362.449479 
L 814.701524 364.275981 
L 817.143728 365.827127 
L 819.585932 367.099075 
L 821.72286 367.980894 
L 823.859789 368.645895 
L 825.996717 369.093762 
L 828.133646 369.324873 
L 830.270574 369.340295 
L 832.407503 369.141779 
L 834.544431 368.731746 
L 836.68136 368.113283 
L 839.123564 367.156074 
L 841.565768 365.938141 
L 844.007972 364.467153 
L 846.450176 362.751818 
L 849.197655 360.542128 
L 851.945135 358.050805 
L 854.99789 354.972824 
L 858.35592 351.239425 
L 861.713951 347.177035 
L 865.682532 342.005329 
L 869.956389 336.062001 
L 875.146073 328.453538 
L 883.083236 316.365529 
L 883.693787 315.428674 
L 883.999062 369.36 
L 907.2 369.36 
L 907.2 369.36 
" style="fill:none;stroke:#2ca02c;stroke-dasharray:3,3;stroke-dashoffset:0;stroke-width:1.5;"/>
   </g>
   <g id="patch_5">
    <path d="M 126 384.48 
L 126 51.84 
" style="fill:none;stroke:#000000;stroke-linecap:square;stroke-linejoin:miter;stroke-width:0.8;"/>
   </g>
   <g id="patch_6">
    <path d="M 907.2 384.48 
L 907.2 51.84 
" style="fill:none;stroke:#000000;stroke-linecap:square;stroke-linejoin:miter;stroke-width:0.8;"/>
   </g>
   <g id="patch_7">
    <path d="M 126 384.48 
L 907.2 384.48 
" style="fill:none;stroke:#000000;stroke-linecap:square;stroke-linejoin:miter;stroke-width:0.8;"/>
   </g>
   <g id="patch_8">
    <path d="M 126 51.84 
L 907.2 51.84 
" style="fill:none;stroke:#000000;stroke-linecap:square;stroke-linejoin:miter;stroke-width:0.8;"/>
   </g>
  </g>
 </g>
 <defs>
  <clipPath id="p0e490377f0">
   <rect height="332.64" width="781.2" x="126" y="51.84"/>
  </clipPath>
 </defs>
</svg>
